<?xml version="1.0" encoding="utf-8"?>
<!-- Generator: Adobe Illustrator 25.1.0, SVG Export Plug-In . SVG Version: 6.00 Build 0)  -->
<svg version="1.1" id="Layer_1" xmlns="http://www.w3.org/2000/svg" xmlns:xlink="http://www.w3.org/1999/xlink" x="0px" y="0px"
	 viewBox="0 0 100 125" style="enable-background:new 0 0 100 125;" xml:space="preserve">
<style type="text/css">
	.st0{fill:#95E22E;}
</style>
<g>
	<path class="st0" d="M19,86.5c5,0,9.6-3,11.5-7.7l4.8,0.6l0.9,0.1c0.1,0,0.1,0,0.2,0c0.8,0,1.6-0.3,2.3-0.7l2.9,1.6h-1.4v1.8h5.3
		v-1.8h-2.1L42.7,80c0.2,0.1,0.5,0.1,0.7,0.1h0.1c1.4,0,2.6-1.2,2.7-2.6h14.5c1.9,6.6,8.7,10.4,15.3,8.6c3.5-1,6.4-3.5,7.9-6.8
		l8.6,0.7l1-27l0,0C93.4,40.4,83.8,30.2,72,30.2s-21.5,10.3-21.5,23h0.1l4.6,22.2h-1.3l-2.6-12.8l0.1-0.1l-0.2-0.3l0,0l-2.7-13.4
		c-0.1-0.4-0.4-0.6-0.7-0.6h-0.4l-0.8-3l1.7-1.7c0.3-0.3,0.3-0.8,0-1.1c-0.2-0.2-0.4-0.2-0.7-0.2l-2,0.4c-0.3-0.3-0.6-0.5-1-0.6
		l-12.1-3.6l0.6-8.6c0.2-2.5-1.7-4.6-4.2-4.8c-2.5-0.2-4.6,1.7-4.8,4.2l-1.5,20.9c-0.1,0.9,0.1,1.8,0.6,2.6c0.3,0.7,0.8,1.2,1.4,1.5
		l0.1,0.1c-0.1,0.1-0.1,0.2-0.1,0.3v1.3c0,0.4,0.3,0.7,0.6,0.7c0,0,0,0,0,0h2.5l1,3.3l-3.1,3.7c-5.7-3.8-13.5-2.2-17.2,3.6
		s-2.2,13.5,3.6,17.2C14.2,85.8,16.6,86.5,19,86.5z M29.5,72.2L20.8,72l5.1-6.1C27.8,67.5,29,69.7,29.5,72.2L29.5,72.2z M49.9,62.8
		c-0.7,0.6-1.9,1.6-4,3.5l-0.2-5.3h3.8L49.9,62.8z M40.5,71.3l-1.9,1.7c-0.5-0.4-1.1-0.6-1.8-0.7h-0.2h-0.9H35l-4.1-11.2h9.3
		L40.5,71.3z M40.3,75.5c-0.1-0.5-0.3-0.9-0.5-1.3l0.9-0.8l0.1,2.1H40.3z M41.6,79.3l-2.2-1.2c0.2-0.2,0.3-0.4,0.5-0.7h0.8
		C40.8,78.2,41.1,78.8,41.6,79.3L41.6,79.3z M72.7,84.7c-4.5,0-8.6-2.9-10.1-7.1l19.4,1.6C80.2,82.6,76.6,84.7,72.7,84.7L72.7,84.7z
		 M72,31.8c10.6,0,19.2,8.8,20,20H52.1C52.8,40.6,61.5,31.8,72,31.8z M46.1,75.5l-0.2-7.1c1.8-1.6,3.3-3,4.2-3.9l2.2,11L46.1,75.5z
		 M43.3,46.8c0.2,0.1,0.5,0.1,0.7,0.1c0.5,0,1-0.2,1.4-0.5l0.7,2.7c0.1,0.3,0.4,0.6,0.7,0.6h0.4l2,9.9h-3.5l-0.1-2.8
		c0-1.2-0.8-2.2-1.9-2.5l-12-3.7l0.5-7L43.3,46.8z M31.4,56.6c0.2,0,0.4-0.1,0.6-0.2l8.2,2.5v0.7h-9.8l0,0l-0.9-3L31.4,56.6z
		 M29.5,61.6l3.9,10.7l-2.2-0.1c-0.4-3-1.9-5.8-4.3-7.7L29.5,61.6z M19,63.4c2,0,4,0.6,5.6,1.6l-6,7.2c-1,0.3-1.8,1.3-1.9,2.3
		c0,1.5,1.1,2.7,2.5,2.9l0,0l9.3,1.1c-2.5,5.3-8.8,7.6-14.2,5.1s-7.6-8.8-5.1-14.2C11,65.7,14.8,63.3,19,63.4z"/>
	<circle class="st0" cx="30.3" cy="18.5" r="5"/>
</g>
</svg>
