<svg id="Group_51097" data-name="Group 51097" xmlns="http://www.w3.org/2000/svg" width="71.669" height="77.116" viewBox="0 0 71.669 77.116">
  <path id="Path_96733" data-name="Path 96733" d="M79.789,74.122a1.086,1.086,0,0,0-.313.744c0,.065-.008.131-.015.2a6.022,6.022,0,0,1-.311,1.147,6.269,6.269,0,0,1-.644,1.1A9.835,9.835,0,0,1,77,78.783l.053-.04-.063.046-.15.12c.049-.04.1-.078.144-.114A21.322,21.322,0,0,1,72.9,81.052l.1-.038-.152.061-.1.044.044-.019c-2.468,1.012-5.018,1.768-7.554,2.571-1.164.361-2.295.775-3.419,1.221a37.553,37.553,0,0,0-4.638,2.079A12.625,12.625,0,0,0,53.667,89.8a11.34,11.34,0,0,0-1.289,1.857,17.575,17.575,0,0,0-1.171,2.673,34.555,34.555,0,0,0-1.585,6.159,32.981,32.981,0,0,0-.446,6.569,1.056,1.056,0,1,0,2.113,0,32.858,32.858,0,0,1,.247-5.174c-.017.1-.025.19-.04.281a34.4,34.4,0,0,1,2.174-8.373l-.021.044.027-.059.08-.2c-.021.053-.042.11-.068.165a12.27,12.27,0,0,1,1.323-2.267,11.607,11.607,0,0,1,1.88-1.834c-.065.057-.139.114-.2.165a19.412,19.412,0,0,1,3.843-2.128l-.063.023.2-.085.053-.023-.017.008c1.052-.437,2.111-.87,3.178-1.255.906-.33,1.823-.619,2.749-.909,2.17-.676,4.348-1.344,6.461-2.2A20.958,20.958,0,0,0,78.84,80a8.754,8.754,0,0,0,1.874-2.2,6.642,6.642,0,0,0,.875-2.928,1.052,1.052,0,0,0-1.8-.744Zm-.338,1.067-.008.072.008-.072ZM53.678,93.771l-.006.015.019-.046-.013.032Zm6.994-6.157-.139.061c.059-.023.118-.049.175-.076l-.036.015ZM72.785,81.1l.059-.025.057-.023c-.04.015-.078.032-.116.049Zm4.2-2.305.006-.006L77,78.783l-.017.013Z" transform="translate(-49.16 -31.742)" fill="#22222b"/>
  <path id="Path_96734" data-name="Path 96734" d="M70.467,74.22a1.074,1.074,0,0,0-.742,1.306,17.077,17.077,0,0,0,1.823,4.241,7.837,7.837,0,0,0,3.664,2.865A29.218,29.218,0,0,0,81.131,84.1c1.048.182,2.088.363,3.129.6a19.139,19.139,0,0,1,3.078.989c-.091-.032-.173-.066-.258-.1a14.765,14.765,0,0,1,2.8,1.646,15.178,15.178,0,0,1,2.248,2.263l-.038-.053.061.085.1.129c-.025-.027-.049-.055-.072-.085a17.965,17.965,0,0,1,2.02,3.583,2.5,2.5,0,0,1-.108-.247,24.975,24.975,0,0,1,1.494,5.652v0c.015.091.027.182.04.273-.011-.063-.021-.125-.03-.184a39.224,39.224,0,0,1,.18,7.454,1.057,1.057,0,0,0,1.056,1.056,1.075,1.075,0,0,0,1.056-1.056,38.228,38.228,0,0,0-.414-9,20.63,20.63,0,0,0-3.226-8.263A15.081,15.081,0,0,0,91.332,85.7a14.628,14.628,0,0,0-2.178-1.452,15.933,15.933,0,0,0-2.616-1.116A33.876,33.876,0,0,0,81.346,82a27.837,27.837,0,0,1-5.466-1.371,8.362,8.362,0,0,1-1.485-.851,6.789,6.789,0,0,1-.9-.925,9.549,9.549,0,0,1-.917-1.616c-.308-.742-.56-1.513-.813-2.276a1.08,1.08,0,0,0-1.018-.78,1.049,1.049,0,0,0-.277.036ZM95.6,98.649l-.011-.089v0l.011.091ZM92.185,89.57l-.032-.044-.023-.032.055.076Z" transform="translate(-26.32 -31.324)" fill="#22222b"/>
  <path id="Path_96735" data-name="Path 96735" d="M54.375,88.1c-.008,1.1.017,2.2.059,3.3a1.056,1.056,0,0,0,2.113,0c-.042-1.1-.068-2.2-.059-3.3a1.058,1.058,0,0,0-1.056-1.056A1.071,1.071,0,0,0,54.375,88.1Z" transform="translate(-43.357 -17.012)" fill="#22222b"/>
  <path id="Path_96736" data-name="Path 96736" d="M77.788,88.072c.042.809.108,1.61.2,2.411a1.133,1.133,0,0,0,.3.75,1.063,1.063,0,0,0,.752.306,1.035,1.035,0,0,0,.742-.306,1.007,1.007,0,0,0,.315-.75c-.091-.8-.156-1.6-.2-2.411a1.076,1.076,0,0,0-1.056-1.056,1.058,1.058,0,0,0-1.056,1.056Z" transform="translate(-17.301 -17.044)" fill="#22222b"/>
  <path id="Path_96737" data-name="Path 96737" d="M78.859,76.157a53.7,53.7,0,0,1-4.314,4.562,7.628,7.628,0,0,1-1.215.71,5.962,5.962,0,0,1-.934.247,6.969,6.969,0,0,1-.813.008,6.368,6.368,0,0,1-1.143-.3,10.069,10.069,0,0,1-1.8-1.08,31.177,31.177,0,0,1-3.78-3.873,1.055,1.055,0,0,0-1.494,0,1.071,1.071,0,0,0,0,1.494,32.186,32.186,0,0,0,3.607,3.731,8.228,8.228,0,0,0,4.515,2.136,6,6,0,0,0,2.2-.247,7.511,7.511,0,0,0,2.451-1.411,16.847,16.847,0,0,0,2.161-2.178c.678-.775,1.329-1.568,2.047-2.3a1.053,1.053,0,0,0-.75-1.8,1.039,1.039,0,0,0-.744.306Zm-10.3,4.084.057.044-.057-.044Z" transform="translate(-33.686 -29.469)" fill="#22222b"/>
  <path id="Path_96738" data-name="Path 96738" d="M60.622,77.855a1.075,1.075,0,0,0-.378,1.443c1.2,2.187,2.542,4.276,3.911,6.347.925,1.395,1.9,3.212,3.731,3.433a4.009,4.009,0,0,0,2.278-.511,6.6,6.6,0,0,0,2.221-1.891,28.282,28.282,0,0,0,2.757-4.944,1.058,1.058,0,0,0-1.826-1.071,34.581,34.581,0,0,1-2.5,4.608,7.925,7.925,0,0,1-1.05,1.063,6.532,6.532,0,0,1-.847.5,4.22,4.22,0,0,1-.545.161,2.685,2.685,0,0,1-.319,0l-.112-.032c-.114-.063-.218-.127-.321-.2a6.3,6.3,0,0,1-.532-.556c-.393-.524-.748-1.075-1.111-1.621-.431-.659-.86-1.312-1.289-1.971-.923-1.428-1.807-2.882-2.624-4.376a1.059,1.059,0,0,0-1.445-.378Zm10.165,7.456-.061.087c.019-.03.04-.059.061-.087Zm-3.026,1.572.1.04a.875.875,0,0,1-.1-.04Z" transform="translate(-36.974 -27.399)" fill="#22222b"/>
  <path id="Path_96739" data-name="Path 96739" d="M78.805,78.156A57,57,0,0,1,75.2,83.8c-.332.423-.674.837-1,1.261-.292.382-.575.769-.866,1.158a5.326,5.326,0,0,1-.687.727l-.057.034-.055.013L72.5,87l-.032-.011a2.1,2.1,0,0,1-.247-.146,5.825,5.825,0,0,1-.6-.608,10.518,10.518,0,0,1-.9-1.68,21.005,21.005,0,0,0-1.76-3.805,1.072,1.072,0,0,0-1.445-.378,1.047,1.047,0,0,0-.378,1.443,10.123,10.123,0,0,1,.83,1.54c.418,1.018.8,2.056,1.289,3.04a6.842,6.842,0,0,0,.752,1.19,5.668,5.668,0,0,0,1.263,1.164,5.037,5.037,0,0,0,.486.222,2.068,2.068,0,0,0,.718.142,3.163,3.163,0,0,0,.685-.091,2.449,2.449,0,0,0,.628-.3,4.035,4.035,0,0,0,.577-.471,6.363,6.363,0,0,0,.537-.628c.349-.435.668-.89,1-1.335.835-1.037,1.635-2.085,2.373-3.186.841-1.255,1.593-2.567,2.352-3.871a1.08,1.08,0,0,0-.378-1.454,1.044,1.044,0,0,0-.526-.139,1.056,1.056,0,0,0-.919.52Zm-10.837,5.2.057.129c-.019-.042-.04-.087-.057-.129Zm7.338.311-.1.12c.032-.042.061-.082.1-.12Zm-1.976,2.557-.089.118a1.231,1.231,0,0,1,.089-.118Zm-.788.78h0v0h0l0,0Zm.008,0,.019,0,0,0-.021,0Zm-.013,0-.013.006,0,0,.013,0Zm.036,0c.061.008.123.017.182.027a1.4,1.4,0,0,1-.186-.023l0,0Zm-.053.006h0a1.113,1.113,0,0,1-.182.07c.063-.021.123-.044.18-.07Z" transform="translate(-29.327 -27.483)" fill="#22222b"/>
  <path id="Path_96740" data-name="Path 96740" d="M72.6,81.433a1.1,1.1,0,0,0-.48.636c-.279.771-.406,1.578-.682,2.345a5.082,5.082,0,0,1-.3.507,2.935,2.935,0,0,1-.245.241,5.372,5.372,0,0,1-.6.37,4.429,4.429,0,0,1-.6.18,3.607,3.607,0,0,1-.6-.006,4.776,4.776,0,0,1-.532-.154,4.7,4.7,0,0,1-.638-.372,5.856,5.856,0,0,1-.594-.6,6.743,6.743,0,0,1-.437-.735,6.134,6.134,0,0,1-.258-.887,1.053,1.053,0,1,0-2.03.56A5.735,5.735,0,0,0,66.3,86.584a4.827,4.827,0,0,0,1.321.858,4.507,4.507,0,0,0,1.8.4,2.837,2.837,0,0,0,.8-.082,4.31,4.31,0,0,0,.792-.247,4.72,4.72,0,0,0,1.7-1.187c.923-1.016.989-2.459,1.443-3.689a1.078,1.078,0,0,0-.742-1.306,1.088,1.088,0,0,0-.818.108Zm-2.658,4.251L69.8,85.7c.046-.006.1-.013.142-.017Z" transform="translate(-32.016 -23.417)" fill="#22222b"/>
  <path id="Path_96741" data-name="Path 96741" d="M65.647,84.187c-.363,2.045-.67,4.1-.851,6.174a36.1,36.1,0,0,0,.034,6.322,1.152,1.152,0,0,0,.306.75,1.061,1.061,0,0,0,1.807-.75,37.133,37.133,0,0,1-.139-4.391,43.5,43.5,0,0,1,.412-4.648c-.017.091-.025.19-.042.281.15-1.065.323-2.121.5-3.178a1.1,1.1,0,0,0-.1-.807,1.073,1.073,0,0,0-.636-.488.963.963,0,0,0-.26-.034,1.026,1.026,0,0,0-1.035.769Z" transform="translate(-31.895 -21.048)" fill="#22222b"/>
  <path id="Path_96742" data-name="Path 96742" d="M67.582,83.491a1.055,1.055,0,0,0-.486.628,1.158,1.158,0,0,0,.108.816c.019.051.04.1.061.148a26.808,26.808,0,0,1,1.3,4.186c.315,1.371.513,2.766.7,4.16-.015-.091-.023-.19-.04-.281.19,1.445.38,2.88.6,4.325a1.015,1.015,0,0,0,.486.628,1.07,1.07,0,0,0,.809.108,1.044,1.044,0,0,0,.636-.488,1.171,1.171,0,0,0,.108-.816c-.1-.67-.2-1.346-.3-2.022l.008.057c-.247-1.849-.471-3.706-.826-5.546-.18-.934-.42-1.857-.693-2.774a24.39,24.39,0,0,0-1.031-2.747,1.03,1.03,0,0,0-.9-.524,1.1,1.1,0,0,0-.543.144Zm3.955,11.167c.008.057.015.112.023.167l-.023-.167Z" transform="translate(-29.237 -21.127)" fill="#22222b"/>
  <path id="Path_96743" data-name="Path 96743" d="M77.952,54.017a35.829,35.829,0,0,0-5.265.949,36.271,36.271,0,0,0-4.819,1.551,19.165,19.165,0,0,0-3.632,1.826,6.222,6.222,0,0,0-1.105.915,13.489,13.489,0,0,0-2.073,3.053,17.64,17.64,0,0,0-1.707,6.86,31.227,31.227,0,0,0,.568,7.484,57.261,57.261,0,0,0,1.874,7.313c.338,1.065.7,2.121,1.065,3.169a33.466,33.466,0,0,0,1.437,3.541,16.27,16.27,0,0,0,10.869,8.79,9.808,9.808,0,0,0,5.794-.452c3.748-1.519,6.208-5.1,7.906-8.61a39.742,39.742,0,0,0,2.263-5.9c.287-.94.545-1.9.75-2.855a28.655,28.655,0,0,0,.528-3.632,30.1,30.1,0,0,0-.313-7.461,21.839,21.839,0,0,0-2.345-6.966,15.618,15.618,0,0,0-2.533-3.385l-.044-.042a8.155,8.155,0,0,0,.186-1.2,4.27,4.27,0,0,0-1.238-3.357,6.369,6.369,0,0,0-3.433-1.519,14.813,14.813,0,0,0-2.462-.192c-.759,0-1.517.046-2.269.118Zm4.1,2.1a8.6,8.6,0,0,1,1.591.4,4.845,4.845,0,0,1,.809.446,3.655,3.655,0,0,1,.4.393,3.807,3.807,0,0,1,.232.4,4.751,4.751,0,0,1,.142.507,5.566,5.566,0,0,1,0,.9,5.742,5.742,0,0,1-.294,1.13,5.378,5.378,0,0,1-.5.851,5.975,5.975,0,0,1-.731.712,8.65,8.65,0,0,1-1.538.864,23.25,23.25,0,0,1-5.365,1.225l.127-.021c-1.329.171-2.662.308-3.991.484a23.678,23.678,0,0,0-3.871.75,6.38,6.38,0,0,0-2.707,1.494,3.818,3.818,0,0,0-1.056,2.88,1.075,1.075,0,0,0,1.056,1.056A1.062,1.062,0,0,0,67.4,69.532a4.238,4.238,0,0,1,.015-.543,3.344,3.344,0,0,1,.1-.372,2.93,2.93,0,0,1,.2-.332,3.17,3.17,0,0,1,.359-.355,5.507,5.507,0,0,1,.911-.513,18.644,18.644,0,0,1,4.217-.938l-.125.021c1.551-.2,3.1-.359,4.648-.575a24.206,24.206,0,0,0,4.473-.974,8.723,8.723,0,0,0,3.541-2.119,5.41,5.41,0,0,0,.486-.585c.177.2.351.406.518.617a16.847,16.847,0,0,1,1.971,3.442,23.979,23.979,0,0,1,1.439,5.481l-.006-.051a30.46,30.46,0,0,1,.008,7.494l.008-.065a31.881,31.881,0,0,1-1.008,4.547,42.049,42.049,0,0,1-1.5,4.251l.013-.025-.03.065-.078.19.038-.1a26.352,26.352,0,0,1-3.045,5.386l.027-.034-.032.038-.085.114c.021-.032.044-.061.068-.091a15,15,0,0,1-2.284,2.333,10.69,10.69,0,0,1-1.995,1.187,9.306,9.306,0,0,1-1.8.5,9.812,9.812,0,0,1-2.185,0A12.486,12.486,0,0,1,73.7,96.8a17.581,17.581,0,0,1-3.469-2,15.187,15.187,0,0,1-2.417-2.4,19.151,19.151,0,0,1-2.2-3.879l.1.247c-.437-1.056-.807-2.138-1.179-3.22-.406-1.171-.784-2.36-1.139-3.548a51.553,51.553,0,0,1-1.735-7.727c.008.091.025.19.034.281a27.419,27.419,0,0,1-.1-6.837A16.854,16.854,0,0,1,62.6,64a13.755,13.755,0,0,1,1.557-2.69,6.873,6.873,0,0,1,.957-1.01,14.98,14.98,0,0,1,2.814-1.528l0,0a37.069,37.069,0,0,1,9.491-2.584c-.1.017-.188.025-.279.042a19.263,19.263,0,0,1,4.919-.11Zm-.264-.04.161.023c-.055-.006-.11-.013-.161-.023Zm1.891.454c.066.023.131.049.2.074l-.2-.074Zm.651.33.068.055a.855.855,0,0,1-.068-.055ZM65.085,60.318a.592.592,0,0,1-.074.053l.074-.053Zm18.57,1.57-.066.053a.792.792,0,0,1,.066-.053Zm-1.532.845-.11.049.11-.049Zm6.567,3.5.027.07-.027-.07Zm-27.1,1.589c-.008.059-.015.118-.025.177l.025-.177Zm5.9.86-.034.076.034-.076Zm-.087.4-.015.087.015-.087Zm22.768,2.787.021.146c-.008-.051-.015-.1-.021-.146Zm-.011,7.37-.025.2c.006-.065.017-.137.025-.2ZM76.186,97.519l.082.011-.082-.011Zm.1.013c.063.008.125.019.188.03-.063-.008-.125-.019-.188-.03Zm8.253-4.023.017-.023,0,0-.021.027ZM87.606,88.1l.04-.093.017-.04-.057.133ZM72.926,66.521c.055-.006.108-.013.156-.021l-.156.021Zm3.991-2.6.152-.021c-.049,0-.1.013-.152.021Z" transform="translate(-37.87 -53.899)" fill="#22222b"/>
  <path id="Path_96744" data-name="Path 96744" d="M59.179,69.407a15.031,15.031,0,0,0,.653,3.871,14.723,14.723,0,0,0,1.883,3.848,1.069,1.069,0,0,0,1.443.378,1.057,1.057,0,0,0,.38-1.443A15.957,15.957,0,0,1,62.2,73.625a14.374,14.374,0,0,1-.805-2.9c-.055-.435-.091-.868-.106-1.314a1.056,1.056,0,0,0-2.113,0Z" transform="translate(-38.009 -37.816)" fill="#22222b"/>
  <path id="Path_96745" data-name="Path 96745" d="M58.408,71.707a1.069,1.069,0,0,0-.313.752,1.081,1.081,0,0,0,.313.742c.239.281.471.57.7.868l0-.006c.456.592.9,1.187,1.375,1.764a1.059,1.059,0,0,0,1.494,0,1.078,1.078,0,0,0,.313-.752,1.093,1.093,0,0,0-.313-.742c-.125-.152-.249-.306-.37-.461l.072.1-.15-.2-.015-.019,0,.006c-.53-.693-1.052-1.392-1.614-2.054a.929.929,0,0,0-.716-.306,1.114,1.114,0,0,0-.778.306Zm3.119,2.066.078.1c-.03-.038-.057-.076-.089-.112l.011.013Z" transform="translate(-39.215 -34.421)" fill="#22222b"/>
</svg>
