<?xml version="1.0" encoding="utf-8"?>
<!-- Generator: Adobe Illustrator 25.1.0, SVG Export Plug-In . SVG Version: 6.00 Build 0)  -->
<svg version="1.1" id="Group_51097" xmlns="http://www.w3.org/2000/svg" xmlns:xlink="http://www.w3.org/1999/xlink" x="0px"
	 y="0px" viewBox="0 0 71.7 77.1" style="enable-background:new 0 0 71.7 77.1;" xml:space="preserve">
<style type="text/css">
	.st0{fill:#788393;}
</style>
<path id="Path_96733" class="st0" d="M30.6,42.4c-0.2,0.2-0.3,0.5-0.3,0.7c0,0.1,0,0.1,0,0.2c-0.1,0.4-0.2,0.8-0.3,1.1
	c-0.2,0.4-0.4,0.8-0.6,1.1c-0.4,0.5-1,1-1.5,1.5l0.1,0l-0.1,0l-0.2,0.1c0,0,0.1-0.1,0.1-0.1c-1.3,0.9-2.6,1.7-4.1,2.3l0.1,0
	l-0.2,0.1l-0.1,0l0,0c-2.5,1-5,1.8-7.6,2.6c-1.2,0.4-2.3,0.8-3.4,1.2c-1.6,0.6-3.1,1.3-4.6,2.1c-1.3,0.7-2.5,1.7-3.5,2.8
	c-0.5,0.6-0.9,1.2-1.3,1.9c-0.5,0.9-0.9,1.8-1.2,2.7c-0.7,2-1.2,4.1-1.6,6.2c-0.4,2.2-0.5,4.4-0.4,6.6c0,0.6,0.5,1.1,1.1,1.1
	s1.1-0.5,1.1-1.1c-0.1-1.7,0-3.5,0.2-5.2c0,0.1,0,0.2,0,0.3c0.4-2.9,1.1-5.7,2.2-8.4l0,0l0-0.1l0.1-0.2c0,0.1,0,0.1-0.1,0.2
	c0.4-0.8,0.8-1.6,1.3-2.3c0.6-0.7,1.2-1.3,1.9-1.8C7.7,58,7.6,58,7.5,58.1c1.2-0.9,2.5-1.6,3.8-2.1l-0.1,0l0.2-0.1l0.1,0l0,0
	c1.1-0.4,2.1-0.9,3.2-1.3c0.9-0.3,1.8-0.6,2.7-0.9c2.2-0.7,4.3-1.3,6.5-2.2c2.1-0.8,4-1.9,5.7-3.2c0.7-0.6,1.4-1.4,1.9-2.2
	c0.5-0.9,0.8-1.9,0.9-2.9c0-0.6-0.5-1.1-1-1.1C31.1,42.1,30.8,42.2,30.6,42.4L30.6,42.4z M30.3,43.4L30.3,43.4L30.3,43.4z M4.5,62
	L4.5,62L4.5,62L4.5,62L4.5,62z M11.5,55.9l-0.1,0.1C11.4,55.9,11.5,55.9,11.5,55.9L11.5,55.9z M23.6,49.4L23.6,49.4l0.1,0
	C23.7,49.3,23.7,49.3,23.6,49.4L23.6,49.4z M27.8,47.1L27.8,47.1L27.8,47.1L27.8,47.1L27.8,47.1z"/>
<path id="Path_96734" class="st0" d="M44.1,42.9c-0.6,0.2-0.9,0.7-0.7,1.3c0.4,1.5,1,2.9,1.8,4.2c0.9,1.3,2.2,2.3,3.7,2.9
	c1.9,0.7,3.9,1.2,5.9,1.5c1,0.2,2.1,0.4,3.1,0.6c1.1,0.2,2.1,0.6,3.1,1c-0.1,0-0.2-0.1-0.3-0.1c1,0.4,1.9,1,2.8,1.6
	c0.8,0.7,1.6,1.4,2.2,2.3l0-0.1l0.1,0.1l0.1,0.1c0,0,0-0.1-0.1-0.1c0.8,1.1,1.5,2.3,2,3.6c0-0.1-0.1-0.2-0.1-0.2
	c0.7,1.8,1.2,3.7,1.5,5.7l0,0c0,0.1,0,0.2,0,0.3c0-0.1,0-0.1,0-0.2c0.3,2.5,0.4,5,0.2,7.5c0,0.6,0.5,1.1,1.1,1.1
	c0.6,0,1-0.5,1.1-1.1c0.2-3,0.1-6-0.4-9c-0.5-3-1.6-5.8-3.2-8.3c-0.8-1.2-1.8-2.2-2.9-3.1c-0.7-0.5-1.4-1-2.2-1.5
	c-0.8-0.4-1.7-0.8-2.6-1.1c-1.7-0.5-3.4-0.9-5.2-1.1c-1.9-0.3-3.7-0.7-5.5-1.4c-0.5-0.2-1-0.5-1.5-0.9c-0.3-0.3-0.6-0.6-0.9-0.9
	c-0.4-0.5-0.7-1-0.9-1.6c-0.3-0.7-0.6-1.5-0.8-2.3c-0.1-0.5-0.5-0.8-1-0.8C44.3,42.9,44.2,42.9,44.1,42.9L44.1,42.9z M69.3,67.3
	L69.3,67.3L69.3,67.3L69.3,67.3L69.3,67.3z M65.9,58.2L65.9,58.2L65.9,58.2L65.9,58.2z"/>
<path id="Path_96735" class="st0" d="M11,71.1c0,1.1,0,2.2,0.1,3.3c0,0.6,0.5,1.1,1.1,1.1s1.1-0.5,1.1-1.1c0-1.1-0.1-2.2-0.1-3.3
	c0-0.6-0.5-1.1-1.1-1.1C11.5,70,11,70.5,11,71.1z"/>
<path id="Path_96736" class="st0" d="M60.5,71c0,0.8,0.1,1.6,0.2,2.4c0,0.3,0.1,0.5,0.3,0.8c0.2,0.2,0.5,0.3,0.8,0.3
	c0.3,0,0.5-0.1,0.7-0.3c0.2-0.2,0.3-0.5,0.3-0.8c-0.1-0.8-0.2-1.6-0.2-2.4c0-0.6-0.5-1-1.1-1.1C61,70,60.5,70.4,60.5,71L60.5,71z"/>
<path id="Path_96737" class="st0" d="M45.2,46.7c-1.3,1.6-2.8,3.1-4.3,4.6c-0.4,0.3-0.8,0.5-1.2,0.7c-0.3,0.1-0.6,0.2-0.9,0.2
	c-0.3,0-0.5,0-0.8,0c-0.4-0.1-0.8-0.2-1.1-0.3c-0.6-0.3-1.2-0.7-1.8-1.1c-1.4-1.2-2.6-2.5-3.8-3.9c-0.4-0.4-1.1-0.4-1.5,0
	c0,0,0,0,0,0c-0.4,0.4-0.4,1.1,0,1.5c1.1,1.3,2.3,2.6,3.6,3.7c1.2,1.2,2.8,1.9,4.5,2.1c0.7,0.1,1.5,0,2.2-0.2
	c0.9-0.3,1.7-0.8,2.5-1.4c0.8-0.7,1.5-1.4,2.2-2.2c0.7-0.8,1.3-1.6,2-2.3c0.4-0.4,0.4-1.1,0-1.5c-0.2-0.2-0.5-0.3-0.8-0.3
	C45.6,46.4,45.4,46.5,45.2,46.7L45.2,46.7z M34.9,50.8L34.9,50.8L34.9,50.8z"/>
<path id="Path_96738" class="st0" d="M23.6,50.5c-0.5,0.3-0.7,0.9-0.4,1.4c1.2,2.2,2.5,4.3,3.9,6.3c0.9,1.4,1.9,3.2,3.7,3.4
	c0.8,0.1,1.6-0.1,2.3-0.5c0.9-0.5,1.6-1.1,2.2-1.9c1.1-1.6,2-3.2,2.8-4.9c0.3-0.5,0.1-1.2-0.4-1.4c-0.5-0.3-1.2-0.1-1.4,0.4l0,0
	c-0.7,1.6-1.6,3.1-2.5,4.6c-0.3,0.4-0.7,0.7-1.1,1.1c-0.3,0.2-0.6,0.4-0.8,0.5c-0.2,0.1-0.4,0.1-0.5,0.2c-0.1,0-0.2,0-0.3,0l-0.1,0
	c-0.1-0.1-0.2-0.1-0.3-0.2c-0.2-0.2-0.4-0.4-0.5-0.6c-0.4-0.5-0.7-1.1-1.1-1.6c-0.4-0.7-0.9-1.3-1.3-2c-0.9-1.4-1.8-2.9-2.6-4.4
	C24.8,50.3,24.2,50.2,23.6,50.5L23.6,50.5z M33.8,57.9L33.8,57.9C33.8,58,33.8,57.9,33.8,57.9z M30.8,59.5L30.8,59.5
	C30.9,59.5,30.8,59.5,30.8,59.5z"/>
<path id="Path_96739" class="st0" d="M49.5,50.7c-1.1,2-2.3,3.8-3.6,5.6c-0.3,0.4-0.7,0.8-1,1.3c-0.3,0.4-0.6,0.8-0.9,1.2
	c-0.2,0.3-0.4,0.5-0.7,0.7l-0.1,0l-0.1,0l0,0l0,0c-0.1,0-0.2-0.1-0.2-0.1c-0.2-0.2-0.4-0.4-0.6-0.6c-0.4-0.5-0.7-1.1-0.9-1.7
	c-0.5-1.3-1-2.6-1.8-3.8c-0.3-0.5-0.9-0.7-1.4-0.4c-0.5,0.3-0.7,0.9-0.4,1.4c0,0,0,0,0,0c0.3,0.5,0.6,1,0.8,1.5c0.4,1,0.8,2.1,1.3,3
	c0.2,0.4,0.5,0.8,0.8,1.2c0.4,0.4,0.8,0.8,1.3,1.2c0.2,0.1,0.3,0.2,0.5,0.2c0.2,0.1,0.5,0.1,0.7,0.1c0.2,0,0.5,0,0.7-0.1
	c0.2-0.1,0.4-0.2,0.6-0.3c0.2-0.1,0.4-0.3,0.6-0.5c0.2-0.2,0.4-0.4,0.5-0.6c0.3-0.4,0.7-0.9,1-1.3c0.8-1,1.6-2.1,2.4-3.2
	c0.8-1.3,1.6-2.6,2.4-3.9c0.3-0.5,0.1-1.2-0.4-1.5c-0.2-0.1-0.3-0.1-0.5-0.1C50,50.2,49.7,50.3,49.5,50.7L49.5,50.7z M38.6,55.9
	l0.1,0.1C38.7,56,38.7,55.9,38.6,55.9z M46,56.2l-0.1,0.1C45.9,56.3,45.9,56.2,46,56.2z M44,58.7l-0.1,0.1
	C43.9,58.8,44,58.8,44,58.7z M43.2,59.5L43.2,59.5L43.2,59.5L43.2,59.5L43.2,59.5z M43.2,59.5L43.2,59.5L43.2,59.5L43.2,59.5
	L43.2,59.5z M43.2,59.5L43.2,59.5L43.2,59.5L43.2,59.5L43.2,59.5z M43.2,59.5c0.1,0,0.1,0,0.2,0C43.4,59.5,43.3,59.5,43.2,59.5
	L43.2,59.5L43.2,59.5z M43.2,59.5L43.2,59.5c-0.1,0-0.1,0.1-0.2,0.1C43.1,59.6,43.1,59.6,43.2,59.5L43.2,59.5z"/>
<path id="Path_96740" class="st0" d="M40.6,58c-0.2,0.1-0.4,0.4-0.5,0.6c-0.3,0.8-0.4,1.6-0.7,2.3c-0.1,0.2-0.2,0.3-0.3,0.5
	c-0.1,0.1-0.2,0.2-0.2,0.2c-0.2,0.1-0.4,0.3-0.6,0.4c-0.2,0.1-0.4,0.1-0.6,0.2c-0.2,0-0.4,0-0.6,0c-0.2,0-0.4-0.1-0.5-0.2
	c-0.2-0.1-0.4-0.2-0.6-0.4c-0.2-0.2-0.4-0.4-0.6-0.6c-0.2-0.2-0.3-0.5-0.4-0.7c-0.1-0.3-0.2-0.6-0.3-0.9c-0.1-0.6-0.7-0.9-1.3-0.8
	c-0.6,0.1-0.9,0.7-0.8,1.3c0,0,0,0,0,0c0.2,1.2,0.8,2.2,1.7,3.1c0.4,0.4,0.8,0.6,1.3,0.9c0.6,0.3,1.2,0.4,1.8,0.4
	c0.3,0,0.5,0,0.8-0.1c0.3-0.1,0.5-0.1,0.8-0.2c0.6-0.3,1.2-0.7,1.7-1.2c0.9-1,1-2.5,1.4-3.7c0.1-0.6-0.2-1.1-0.7-1.3
	C41.1,57.8,40.8,57.9,40.6,58L40.6,58z M37.9,62.3l-0.1,0C37.8,62.3,37.9,62.3,37.9,62.3L37.9,62.3z"/>
<path id="Path_96741" class="st0" d="M33.8,63.1c-0.4,2-0.7,4.1-0.9,6.2c-0.2,2.1-0.2,4.2,0,6.3c0,0.3,0.1,0.5,0.3,0.8
	c0.4,0.4,1.1,0.4,1.5,0c0.2-0.2,0.3-0.5,0.3-0.7c-0.1-1.5-0.2-2.9-0.1-4.4c0.1-1.6,0.2-3.1,0.4-4.6c0,0.1,0,0.2,0,0.3
	c0.2-1.1,0.3-2.1,0.5-3.2c0.1-0.3,0-0.6-0.1-0.8c-0.1-0.2-0.4-0.4-0.6-0.5c-0.1,0-0.2,0-0.3,0C34.3,62.4,33.9,62.7,33.8,63.1
	L33.8,63.1z"/>
<path id="Path_96742" class="st0" d="M38.3,62.4c-0.2,0.1-0.4,0.4-0.5,0.6c-0.1,0.3,0,0.6,0.1,0.8c0,0.1,0,0.1,0.1,0.1
	c0.5,1.4,1,2.8,1.3,4.2c0.3,1.4,0.5,2.8,0.7,4.2c0-0.1,0-0.2,0-0.3c0.2,1.4,0.4,2.9,0.6,4.3c0.1,0.3,0.2,0.5,0.5,0.6
	c0.2,0.1,0.5,0.2,0.8,0.1c0.3-0.1,0.5-0.2,0.6-0.5c0.1-0.2,0.2-0.5,0.1-0.8c-0.1-0.7-0.2-1.3-0.3-2l0,0.1c-0.2-1.8-0.5-3.7-0.8-5.5
	c-0.2-0.9-0.4-1.9-0.7-2.8c-0.3-0.9-0.6-1.9-1-2.7c-0.2-0.3-0.5-0.5-0.9-0.5C38.7,62.2,38.5,62.3,38.3,62.4L38.3,62.4z M42.3,73.5
	c0,0.1,0,0.1,0,0.2L42.3,73.5z"/>
<path id="Path_96743" class="st0" d="M40.1,0.1c-1.8,0.2-3.5,0.5-5.3,0.9C33.2,1.5,31.6,2,30,2.6c-1.3,0.5-2.5,1.1-3.6,1.8
	C26,4.7,25.6,5,25.3,5.4c-0.8,0.9-1.5,1.9-2.1,3.1c-1,2.1-1.6,4.5-1.7,6.9c-0.1,2.5,0.1,5,0.6,7.5c0.5,2.5,1.1,4.9,1.9,7.3
	c0.3,1.1,0.7,2.1,1.1,3.2c0.4,1.2,0.9,2.4,1.4,3.5c2.1,4.4,6.1,7.6,10.9,8.8c1.9,0.4,4,0.3,5.8-0.5c3.7-1.5,6.2-5.1,7.9-8.6
	c0.9-1.9,1.7-3.9,2.3-5.9c0.3-0.9,0.5-1.9,0.8-2.9c0.3-1.2,0.4-2.4,0.5-3.6c0.2-2.5,0.1-5-0.3-7.5c-0.4-2.4-1.2-4.8-2.3-7
	c-0.7-1.2-1.5-2.4-2.5-3.4l0,0c0.1-0.4,0.2-0.8,0.2-1.2c0.1-1.2-0.4-2.5-1.2-3.4c-1-0.8-2.2-1.4-3.4-1.5C44,0.1,43.2,0,42.4,0
	C41.6,0,40.8,0,40.1,0.1L40.1,0.1z M44.2,2.2c0.5,0.1,1.1,0.2,1.6,0.4c0.3,0.1,0.6,0.3,0.8,0.4c0.1,0.1,0.3,0.3,0.4,0.4
	c0.1,0.1,0.2,0.3,0.2,0.4c0.1,0.2,0.1,0.3,0.1,0.5c0,0.3,0,0.6,0,0.9c-0.1,0.4-0.2,0.8-0.3,1.1c-0.1,0.3-0.3,0.6-0.5,0.9
	c-0.2,0.3-0.5,0.5-0.7,0.7c-0.5,0.3-1,0.6-1.5,0.9c-1.7,0.6-3.5,1-5.4,1.2l0.1,0c-1.3,0.2-2.7,0.3-4,0.5c-1.3,0.1-2.6,0.4-3.9,0.8
	c-1,0.3-1.9,0.8-2.7,1.5c-0.7,0.8-1.1,1.8-1.1,2.9c0,0.6,0.5,1,1.1,1.1c0.6,0,1-0.5,1-1.1c0-0.2,0-0.4,0-0.5c0-0.1,0.1-0.3,0.1-0.4
	c0.1-0.1,0.1-0.2,0.2-0.3c0.1-0.1,0.2-0.2,0.4-0.4c0.3-0.2,0.6-0.4,0.9-0.5c1.4-0.5,2.8-0.8,4.2-0.9l-0.1,0c1.6-0.2,3.1-0.4,4.6-0.6
	c1.5-0.2,3-0.5,4.5-1c1.3-0.4,2.5-1.1,3.5-2.1c0.2-0.2,0.3-0.4,0.5-0.6c0.2,0.2,0.4,0.4,0.5,0.6c0.8,1.1,1.5,2.2,2,3.4
	c0.7,1.8,1.2,3.6,1.4,5.5l0-0.1c0.3,2.5,0.3,5,0,7.5l0-0.1c-0.2,1.5-0.6,3.1-1,4.5c-0.4,1.4-0.9,2.9-1.5,4.3l0,0l0,0.1l-0.1,0.2
	l0-0.1c-0.8,1.9-1.8,3.7-3,5.4l0,0l0,0l-0.1,0.1c0,0,0-0.1,0.1-0.1c-0.7,0.9-1.4,1.6-2.3,2.3c-0.6,0.5-1.3,0.9-2,1.2
	c-0.6,0.2-1.2,0.4-1.8,0.5c-0.7,0.1-1.5,0.1-2.2,0c-0.9-0.1-1.7-0.4-2.6-0.7c-1.2-0.5-2.4-1.2-3.5-2c-0.9-0.7-1.7-1.5-2.4-2.4
	c-0.9-1.2-1.6-2.5-2.2-3.9l0.1,0.2c-0.4-1.1-0.8-2.1-1.2-3.2c-0.4-1.2-0.8-2.4-1.1-3.5c-0.8-2.5-1.4-5.1-1.7-7.7c0,0.1,0,0.2,0,0.3
	c-0.3-2.3-0.4-4.6-0.1-6.8c0.2-1.3,0.5-2.5,1-3.7c0.4-1,0.9-1.9,1.6-2.7c0.3-0.4,0.6-0.7,1-1c0.9-0.6,1.8-1.1,2.8-1.5l0,0
	c3-1.3,6.2-2.1,9.5-2.6c-0.1,0-0.2,0-0.3,0C40.9,2.1,42.6,2,44.2,2.2L44.2,2.2z M43.9,2.2l0.2,0C44,2.2,44,2.2,43.9,2.2z M45.8,2.6
	c0.1,0,0.1,0,0.2,0.1L45.8,2.6z M46.5,3L46.5,3C46.5,3,46.5,3,46.5,3z M27.2,6.4C27.2,6.4,27.2,6.5,27.2,6.4L27.2,6.4z M45.8,8
	L45.8,8C45.7,8,45.8,8,45.8,8z M44.3,8.8l-0.1,0L44.3,8.8z M50.8,12.3L50.8,12.3L50.8,12.3z M23.7,13.9c0,0.1,0,0.1,0,0.2L23.7,13.9
	z M29.6,14.8L29.6,14.8L29.6,14.8z M29.5,15.2L29.5,15.2L29.5,15.2z M52.3,18l0,0.1C52.3,18.1,52.3,18,52.3,18z M52.3,25.3l0,0.2
	C52.3,25.5,52.3,25.4,52.3,25.3z M38.3,43.6L38.3,43.6L38.3,43.6z M38.4,43.6c0.1,0,0.1,0,0.2,0C38.5,43.7,38.5,43.6,38.4,43.6z
	 M46.7,39.6L46.7,39.6L46.7,39.6L46.7,39.6L46.7,39.6z M49.7,34.2L49.7,34.2l0.1-0.1L49.7,34.2z M35.1,12.6c0.1,0,0.1,0,0.2,0
	L35.1,12.6z M39,10l0.2,0C39.1,10,39.1,10,39,10z"/>
<path id="Path_96744" class="st0" d="M21.2,31.6c0,1.3,0.3,2.6,0.7,3.9c0.4,1.4,1.1,2.7,1.9,3.8c0.3,0.5,0.9,0.7,1.4,0.4
	c0.5-0.3,0.7-0.9,0.4-1.4c-0.5-0.8-1-1.6-1.3-2.4c-0.4-0.9-0.6-1.9-0.8-2.9c-0.1-0.4-0.1-0.9-0.1-1.3c0-0.6-0.5-1.1-1.1-1.1
	S21.2,31,21.2,31.6L21.2,31.6z"/>
<path id="Path_96745" class="st0" d="M19.2,37.3c-0.2,0.2-0.3,0.5-0.3,0.8c0,0.3,0.1,0.5,0.3,0.7c0.2,0.3,0.5,0.6,0.7,0.9v0
	c0.5,0.6,0.9,1.2,1.4,1.8c0.4,0.4,1.1,0.4,1.5,0c0.2-0.2,0.3-0.5,0.3-0.8c0-0.3-0.1-0.5-0.3-0.7c-0.1-0.2-0.2-0.3-0.4-0.5l0.1,0.1
	l-0.2-0.2l0,0v0c-0.5-0.7-1.1-1.4-1.6-2.1C20.5,37.1,20.2,37,20,37C19.7,37,19.4,37.1,19.2,37.3L19.2,37.3z M22.3,39.4L22.3,39.4
	C22.4,39.4,22.3,39.4,22.3,39.4L22.3,39.4L22.3,39.4z"/>
</svg>
