<svg id="Group_51098" data-name="Group 51098" xmlns="http://www.w3.org/2000/svg" width="64.136" height="79" viewBox="0 0 64.136 79">
  <path id="Path_96746" data-name="Path 96746" d="M374.344,223.038a8.984,8.984,0,0,1-.168,1.113,7.122,7.122,0,0,1-.562,1.4,7.223,7.223,0,0,1-.882,1.133,9.473,9.473,0,0,1-1.6,1.192,18.188,18.188,0,0,1-3.807,1.5c-2.679.73-5.433,1.118-8.127,1.779a15.508,15.508,0,0,0-3.72,1.368,10.333,10.333,0,0,0-3.412,3.031c-1.764,2.437-2.337,5.559-2.534,8.5-.225,3.224.032,6.454.074,9.677v-.282c.008,1.109-.042,2.22-.059,3.33a1.1,1.1,0,0,0,.216.778,1.046,1.046,0,0,0,1.482.191,1.015,1.015,0,0,0,.407-.7c.015-.952.057-1.9.057-2.859,0-.736-.017-1.474-.034-2.21-.04-1.533-.1-3.058-.123-4.592,0,.064.006.125.009.187a30.259,30.259,0,0,1,.63-7.162l0,.008a13.57,13.57,0,0,1,1.1-2.852,10.178,10.178,0,0,1,1.374-1.828,10.563,10.563,0,0,1,1.535-1.194,12.805,12.805,0,0,1,2.717-1.128c1.7-.467,3.436-.772,5.154-1.116a42.011,42.011,0,0,0,5.675-1.474,11.922,11.922,0,0,0,4.572-2.751,7.93,7.93,0,0,0,1.408-2,7.7,7.7,0,0,0,.721-2.776A1.054,1.054,0,0,0,375.4,222.1a1.065,1.065,0,0,0-1.058.935Zm-.172,1.137c-.015.062-.028.125-.045.189.013-.064.028-.127.045-.189Zm-1.345,2.418-.07.066c.023-.023.047-.045.07-.066Zm-13.938,6.831-.163.045.163-.045Zm-2.564,1.039-.072.045.072-.045Zm-1.533,1.143c-.03.034-.062.066-.1.1l.1-.1Zm-1.4,1.773-.042.076.042-.076Zm-1.83,10.3v0Z" transform="translate(-349.442 -178.973)" fill="#22222b"/>
  <path id="Path_96747" data-name="Path 96747" d="M365.568,222.719c-.008.358,0,.715.023,1.069a5.5,5.5,0,0,0,.3,1.211,4.368,4.368,0,0,0,.4.836,6.72,6.72,0,0,0,.7.969,10.206,10.206,0,0,0,3.953,2.5,29.728,29.728,0,0,0,4.447,1.275c1.669.369,3.334.689,4.984,1.109-.066-.015-.134-.03-.2-.049a21.32,21.32,0,0,1,5.018,1.907,11.332,11.332,0,0,1,1.845,1.406,8.836,8.836,0,0,1,1.143,1.474,13.324,13.324,0,0,1,.967,2.333,21.679,21.679,0,0,1,.653,5.332c-.011,3.9-.583,7.79-.371,11.69a1.068,1.068,0,0,0,1.2.9,1.093,1.093,0,0,0,.7-.405,1.158,1.158,0,0,0,.208-.8c-.026-.416-.042-.829-.051-1.243.006.066.009.136.009.2-.017-3.461.431-6.9.416-10.36-.026-3.315-.49-6.77-2.437-9.535a10.172,10.172,0,0,0-3.124-2.759,18.658,18.658,0,0,0-4.008-1.722c-2.723-.85-5.554-1.258-8.3-1.981a18.831,18.831,0,0,1-3.873-1.463,8.864,8.864,0,0,1-1.442-1.067,5.833,5.833,0,0,1-.553-.693,5.27,5.27,0,0,1-.367-.819,5.634,5.634,0,0,1-.125-.906v-.148a1.091,1.091,0,0,0-.216-.778,1.025,1.025,0,0,0-.7-.405,1,1,0,0,0-.115-.008,1.056,1.056,0,0,0-1.069.927Zm4.373,3.779c.055.028.11.059.165.089l-.165-.089Zm21.547,28.018v0Z" transform="translate(-331.372 -179.321)" fill="#22222b"/>
  <path id="Path_96748" data-name="Path 96748" d="M354.916,235.789c-.108,2.087.191,4.159.223,6.246a1.042,1.042,0,0,0,.407.687,1.1,1.1,0,0,0,.8.216,1.118,1.118,0,0,0,.7-.407,1.188,1.188,0,0,0,.208-.8c-.025-1.576-.212-3.143-.257-4.727,0-.316.013-.628.032-.946a1.079,1.079,0,0,0-.918-1.186,1.162,1.162,0,0,0-.121-.006,1.05,1.05,0,0,0-1.065.927Z" transform="translate(-343.333 -164.673)" fill="#22222b"/>
  <path id="Path_96749" data-name="Path 96749" d="M371.96,235.588a1.064,1.064,0,0,0-.182,1.491,1,1,0,0,0,.7.4,1.162,1.162,0,0,0,.787-.214,1.078,1.078,0,0,0,.4-.7,1.066,1.066,0,0,0-.214-.787,1,1,0,0,0-.7-.4,1.161,1.161,0,0,0-.787.216Z" transform="translate(-324.659 -164.101)" fill="#22222b"/>
  <path id="Path_96750" data-name="Path 96750" d="M379.465,225.552a29.635,29.635,0,0,1-1.457,2.942c.04-.085.091-.159.131-.242a16.728,16.728,0,0,1-2.276,3.075,10.542,10.542,0,0,1-1.7,1.323,6.416,6.416,0,0,1-3.168.859,10.792,10.792,0,0,1-2.14-.278A13.184,13.184,0,0,1,366,232a16.325,16.325,0,0,1-2.806-2.21c.066.066.123.132.189.2a16.123,16.123,0,0,1-2.3-2.9l.013.019c-.14-.248-.273-.5-.405-.753a1.076,1.076,0,0,0-1.391-.556,1.063,1.063,0,0,0-.556,1.391,16.475,16.475,0,0,0,4.837,5.732,14.861,14.861,0,0,0,3.238,1.847,10.779,10.779,0,0,0,3.8.838,8.36,8.36,0,0,0,5.013-1.383,9.42,9.42,0,0,0,1.614-1.311,20.007,20.007,0,0,0,4.167-6.543,1.073,1.073,0,0,0-.571-1.393,1.059,1.059,0,0,0-.4-.078,1.081,1.081,0,0,0-.986.651Zm-18.506,1.325c.028.04.051.085.076.127l-.076-.127Zm14.875,4.481-.072.074c.023-.025.047-.049.072-.074ZM366,232c.064.036.129.076.191.117-.066-.038-.127-.076-.191-.117Z" transform="translate(-339.117 -175.837)" fill="#22222b"/>
  <path id="Path_96751" data-name="Path 96751" d="M366.728,229.014a1.082,1.082,0,0,0-.687.407,1.045,1.045,0,0,0-.206.8.977.977,0,0,0,.405.687,4.552,4.552,0,0,1,.566.4,5.459,5.459,0,0,1,.365.462,4.2,4.2,0,0,1,.3.687,3.76,3.76,0,0,1,.091.6,3.368,3.368,0,0,1-.053.458,2.916,2.916,0,0,1-.119.3,2.607,2.607,0,0,1-.165.216c-.07.057-.142.108-.216.159-.11.051-.221.093-.335.134a3.088,3.088,0,0,1-.392.047c-.07,0-.138-.013-.208-.023a2.876,2.876,0,0,1-.316-.125,3.689,3.689,0,0,1-.367-.284,2.624,2.624,0,0,1-.657-1.171,3.862,3.862,0,0,1-.093-.64,3.976,3.976,0,0,1,.042-.418,3.265,3.265,0,0,1,.125-.32c.047-.066.093-.129.144-.191a2.867,2.867,0,0,1,.365-.257,1.024,1.024,0,0,0,.405-.7,1.115,1.115,0,0,0-.216-.789,1.06,1.06,0,0,0-.7-.4,1.1,1.1,0,0,0-.787.216,3,3,0,0,0-1.343,1.779,4.35,4.35,0,0,0,.068,2.437,4.657,4.657,0,0,0,1.258,2.047,4.236,4.236,0,0,0,1.06.7,3.049,3.049,0,0,0,1.325.248,3.238,3.238,0,0,0,3.272-2.973,3.963,3.963,0,0,0-.032-1.086,4.574,4.574,0,0,0-.382-1.26,4.143,4.143,0,0,0-1.716-1.938,1.263,1.263,0,0,0-.655-.216,1.08,1.08,0,0,0-.14.008Zm.365,2.611.047.083c-.015-.028-.032-.055-.047-.083Zm-2.468.265c.006.062.006.121.008.178,0-.059-.006-.119-.008-.178Z" transform="translate(-334.778 -171.236)" fill="#22222b"/>
  <path id="Path_96752" data-name="Path 96752" d="M371.935,234.293a1.028,1.028,0,0,0-.4.713,52.433,52.433,0,0,0,.191,6.479,1.059,1.059,0,1,0,2.1-.307c-.123-1.15-.18-2.3-.2-3.457,0-.819.008-1.642.015-2.458a1.2,1.2,0,0,0-.214-.778,1.1,1.1,0,0,0-.713-.405,1.155,1.155,0,0,0-.121-.008,1.138,1.138,0,0,0-.66.223Z" transform="translate(-324.694 -165.56)" fill="#22222b"/>
  <path id="Path_96753" data-name="Path 96753" d="M363.737,207.693a1.077,1.077,0,0,0-.878,1.217,10.536,10.536,0,0,0,.439,2.076.932.932,0,0,0-.049.1,50.133,50.133,0,0,0-3.936,12.74,22.3,22.3,0,0,0-.008,6.884,13.576,13.576,0,0,0,2.594,6.04,11,11,0,0,0,1.109,1.226,6.811,6.811,0,0,0,1.334,1.052,7.728,7.728,0,0,0,3.58,1.02,10.676,10.676,0,0,0,3.569-.447,11.13,11.13,0,0,0,3.241-1.508,9.017,9.017,0,0,0,2.03-2.055,13.358,13.358,0,0,0,1.565-2.916,19.408,19.408,0,0,0,.912-3.09,23.421,23.421,0,0,0,.462-3.478,22.551,22.551,0,0,0-.248-5.179,11.089,11.089,0,0,0-1.964-4.912,7.315,7.315,0,0,0-3.851-2.494,14.181,14.181,0,0,0-2.486-.464c-.464-.049-.927-.074-1.391-.108a8.539,8.539,0,0,1-1.353-.2,6.714,6.714,0,0,1-1.264-.488,5.571,5.571,0,0,1-.736-.543,5.387,5.387,0,0,1-.623-.778,7.533,7.533,0,0,1-.558-1.313,13.382,13.382,0,0,1-.28-1.508,1.058,1.058,0,0,0-1.05-.891.986.986,0,0,0-.159.013Zm1.133,5.925a5.759,5.759,0,0,0,1.071.833,8.165,8.165,0,0,0,3.315,1.037c.636.074,1.283.083,1.93.157a11.808,11.808,0,0,1,1.465.246,8.889,8.889,0,0,1,1.714.641,7,7,0,0,1,.957.691,6.707,6.707,0,0,1,.867,1.071,9.891,9.891,0,0,1,.778,1.769,17.718,17.718,0,0,1,.655,4.3,24.056,24.056,0,0,1-.581,5.815l.034-.121-.04.155-.025.119.015-.081a16,16,0,0,1-1.423,3.684,10.774,10.774,0,0,1-1.219,1.665,8.5,8.5,0,0,1-1.209.993,10.562,10.562,0,0,1-2.045.916,11.272,11.272,0,0,1-2.524.437,9.073,9.073,0,0,1-1.792-.174,6.511,6.511,0,0,1-1.342-.524,7.064,7.064,0,0,1-.933-.715,12.153,12.153,0,0,1-1.661-2.078,13.107,13.107,0,0,1-1.12-2.534,16.925,16.925,0,0,1-.6-3.972,28.754,28.754,0,0,1,.859-6.994l0,.034a52.766,52.766,0,0,1,2.433-7.3l.03,0a1.124,1.124,0,0,0,.392-.07Zm-3.2,18.042c.034.089.057.178.081.261-.027-.087-.053-.174-.081-.261Zm12.67,3.983-.059.068a.845.845,0,0,1,.059-.068Zm-9.885.821.053.049-.053-.049Zm.123.119.076.072-.076-.072Zm12.443-6.328.011-.038.006-.034-.017.072Z" transform="translate(-338.684 -195.138)" fill="#22222b"/>
  <path id="Path_96754" data-name="Path 96754" d="M370.779,201.847a14.269,14.269,0,0,0-3.289.753,14.875,14.875,0,0,0-5.334,3.372,22.047,22.047,0,0,0-4.044,5.41,34.428,34.428,0,0,0-1.5,3.147,24.318,24.318,0,0,0-1.349,4.515,51.279,51.279,0,0,0-.672,9.758c-.032,3.084-.257,6.165-.148,9.247a24.431,24.431,0,0,0,.414,3.646,10.924,10.924,0,0,0,1.052,3.113,6.113,6.113,0,0,0,1.468,1.79,4.627,4.627,0,0,0,2.087.952,8.506,8.506,0,0,0,4.473-.547,26.011,26.011,0,0,0,4.674-2.369,1.167,1.167,0,0,0,.553-.579,1.088,1.088,0,0,0-.015-.821,1.064,1.064,0,0,0-.581-.556,1.009,1.009,0,0,0-.829.017,25.43,25.43,0,0,1-5.062,2.5,8.784,8.784,0,0,1-1.915.354,5.977,5.977,0,0,1-.952-.085,2.763,2.763,0,0,1-1.364-.746,5.515,5.515,0,0,1-.558-.713,8.816,8.816,0,0,1-.683-1.593,22.059,22.059,0,0,1-.674-5.088v.291c-.032-1.508.008-3.016.059-4.515q.1-2.424.123-4.854a46.074,46.074,0,0,1,.852-9.866,27.256,27.256,0,0,1,2.458-6.108,22.4,22.4,0,0,1,3.277-4.481c-.059.066-.125.134-.182.2a16,16,0,0,1,2.872-2.339,14.206,14.206,0,0,1,2.81-1.262,14.494,14.494,0,0,1,3.217-.509,17.559,17.559,0,0,1,4.114.471,18.576,18.576,0,0,1,4.07,1.569,18.954,18.954,0,0,1,3.468,2.562,23.79,23.79,0,0,1,3.455,4.318l-.032-.055.1.17.04.064-.021-.032a36.442,36.442,0,0,1,3.493,8.133c-.034-.091-.059-.182-.083-.265a55.87,55.87,0,0,1,2.2,13.878v.008l.008.238c0-.051-.006-.1-.008-.151a19.708,19.708,0,0,1-.5,4.63l.015-.055-.015.057-.051.216c.013-.068.03-.136.047-.2a14.666,14.666,0,0,1-1.162,3.048l.021-.036-.023.04c-.036.068-.072.134-.108.2.028-.057.059-.117.091-.172a11.152,11.152,0,0,1-1.084,1.5,7.07,7.07,0,0,1-1.213.99,6.474,6.474,0,0,1-1.088.486,7,7,0,0,1-1.207.168,9.319,9.319,0,0,1-1.236-.146,8.826,8.826,0,0,1-1.722-.7,10.13,10.13,0,0,1-1.332-1c.068.066.134.123.191.191a9.339,9.339,0,0,1-.995-1.128,1.06,1.06,0,0,0-1.648,1.334,8.773,8.773,0,0,0,6.354,3.554,6.51,6.51,0,0,0,3.438-.746,8.138,8.138,0,0,0,2.551-2.2,11.146,11.146,0,0,0,1.567-2.816,17.526,17.526,0,0,0,.952-3.472,25.719,25.719,0,0,0,.132-6.345,54.631,54.631,0,0,0-2.477-13,29.851,29.851,0,0,0-6.386-11.414,22.049,22.049,0,0,0-2.246-2.064,18.835,18.835,0,0,0-9.56-3.845,14.963,14.963,0,0,0-1.635-.087c-.568,0-1.137.03-1.7.081Zm9.3,4.008.068.04-.068-.04Zm-20,6.305c-.019.036-.038.074-.059.11l.059-.11Zm-.066.121-.006.011.006-.011Zm-2.394,5.843c-.015.078-.036.159-.055.244l.055-.244Zm26.035,26.737.061.038-.061-.038Zm7.467-2.346.017-.028,0,0-.019.032Zm1.181-3.079,0-.013v0l0,.015Zm.509-4.645v0Zm-5.605-21.842-.019-.032-.07-.115c.028.051.057.1.089.146Z" transform="translate(-343.87 -201.766)" fill="#22222b"/>
  <path id="Path_96755" data-name="Path 96755" d="M352.829,221.043a6.05,6.05,0,0,0,.017,1.542,4.412,4.412,0,0,0,.231.838,7.759,7.759,0,0,0,.365.827,18.264,18.264,0,0,0,1.93,2.742,1.062,1.062,0,0,0,1.658-1.325c-.511-.668-1.043-1.325-1.51-2.027a7.935,7.935,0,0,1-.479-.995,5.521,5.521,0,0,1-.151-.912,3.685,3.685,0,0,1,.042-.456,1.057,1.057,0,0,0-.935-1.169,1.149,1.149,0,0,0-.119-.006,1.068,1.068,0,0,0-1.05.942Zm2.24,1.7.023.078-.023-.078Zm.312.677c.045.064.087.129.129.2l-.129-.2Z" transform="translate(-345.692 -181.216)" fill="#22222b"/>
  <path id="Path_96756" data-name="Path 96756" d="M352.2,221.9a1.075,1.075,0,0,0-.539,1.408,7.121,7.121,0,0,0,.8,1.342,5.718,5.718,0,0,0,1.385,1.268,1.063,1.063,0,0,0,1.266-1.707,6.478,6.478,0,0,1-.645-.494,7,7,0,0,1-.623-.783,4.449,4.449,0,0,1-.24-.5,1.085,1.085,0,0,0-.982-.626,1.039,1.039,0,0,0-.418.087Z" transform="translate(-347.057 -179.294)" fill="#22222b"/>
  <path id="Path_96757" data-name="Path 96757" d="M378.285,227.345a1.065,1.065,0,0,0-.539,1.4,8.074,8.074,0,0,0,.986,1.482,15.714,15.714,0,0,1,1.012,1.3,2.883,2.883,0,0,1,.2.437,1.061,1.061,0,0,0,1.938-.861,6.517,6.517,0,0,0-.91-1.51c-.373-.479-.78-.91-1.128-1.406.051.074.091.157.142.231a3.673,3.673,0,0,1-.3-.53,1.123,1.123,0,0,0-.978-.632,1.013,1.013,0,0,0-.422.093Z" transform="translate(-317.83 -173.202)" fill="#22222b"/>
</svg>
