<svg xmlns="http://www.w3.org/2000/svg" width="115.2" height="107.992" viewBox="0 0 115.2 107.992">
  <g id="Group_51089" data-name="Group 51089" transform="translate(-46.563 -121.451)">
    <path id="Path_96712" data-name="Path 96712" d="M57.067,157.5a1.48,1.48,0,0,0-.435,1.048,1.435,1.435,0,0,0,.423,1.016,1.55,1.55,0,0,0,1.036.432c14.69,1.722,29.491.946,44.225.479a1.46,1.46,0,1,0,0-2.919c-14.734.458-29.546,1.244-44.225-.479l-.073,0a1.508,1.508,0,0,0-.952.426Z" transform="translate(19.325 68.379)" fill="#2c2c2c"/>
    <path id="Path_96713" data-name="Path 96713" d="M61.214,154.235a50.436,50.436,0,0,0-.9,6.145,31.407,31.407,0,0,0-.082,3.273,17,17,0,0,0,.423,2.919,1.457,1.457,0,0,0,1.836.934,1.409,1.409,0,0,0,.844-.706,1.551,1.551,0,0,0,.1-1.127c-.041-.152-.073-.307-.108-.461a22.146,22.146,0,0,1-.108-4.837c.187-1.857.482-3.69.844-5.515a1.5,1.5,0,0,0-1.118-1.743,1.427,1.427,0,0,0-.295-.032,1.459,1.459,0,0,0-1.439,1.15Zm2.052,10.638c.018.093.035.181.05.269-.015-.09-.032-.181-.05-.269Z" transform="translate(26.213 60.715)" fill="#2c2c2c"/>
    <path id="Path_96714" data-name="Path 96714" d="M68.681,153.388a1.5,1.5,0,0,0-.946,1.836c.041.149.073.3.111.45A14.723,14.723,0,0,1,68,157.4a20.982,20.982,0,0,1-.126,2.566l.035-.388c-.07.809-.149,1.629-.2,2.441A13.891,13.891,0,0,0,67.9,165.1a1.715,1.715,0,0,0,.467.993,1.457,1.457,0,0,0,2.064-.079,1.36,1.36,0,0,0,.388-1.06,15.129,15.129,0,0,1-.2-2.052,23.613,23.613,0,0,1,.137-2.566c-.012.126-.023.26-.035.385.079-.978.169-1.97.2-2.963a12.815,12.815,0,0,0-.4-3.421,1.42,1.42,0,0,0-1.41-1.01,1.4,1.4,0,0,0-.426.064Z" transform="translate(40.541 61.174)" fill="#2c2c2c"/>
    <path id="Path_96715" data-name="Path 96715" d="M67.454,129.047a1.585,1.585,0,0,0-.388.012c-2.268.3-4.128,1.757-6.122,2.759-.47.228-.925.435-1.381.686a8.668,8.668,0,0,0-1.29.855,4.987,4.987,0,0,0-.99,1.139,4.561,4.561,0,0,0-.549,1.29,12.59,12.59,0,0,0-.377,3.065c-.035,1.063.023,2.134.09,3.194.035.435.058.867.117,1.3a3.337,3.337,0,0,0,.479,1.176,3.714,3.714,0,0,0,.876,1,7.7,7.7,0,0,0,1.416.82,12.791,12.791,0,0,0,2.7.706c.9.172,1.813.365,2.724.5a4.875,4.875,0,0,0,2.064-.09,2.8,2.8,0,0,0,1.7-1.322,5.826,5.826,0,0,0,.6-2.271,36.985,36.985,0,0,0,.047-3.9c-.047-3.135-.172-6.259.012-9.386a1.485,1.485,0,0,0-1.357-1.562l-.1,0a1.434,1.434,0,0,0-.274.026Zm-4.175,4.834a32.306,32.306,0,0,1,2.919-1.565c-.05,1.927-.009,3.854.035,5.786.023,1.3.047,2.6.035,3.889a14.8,14.8,0,0,1-.143,2.33c-.035.117-.07.228-.114.342l-.2.035a9.212,9.212,0,0,1-1.518-.163c-.8-.137-1.6-.309-2.394-.458l.377.07a10.444,10.444,0,0,1-2.119-.628c-.161-.1-.315-.2-.47-.309-.053-.058-.1-.114-.149-.172-.026-.05-.053-.1-.073-.149a7.581,7.581,0,0,1-.134-1.153l0,.131-.015-.251-.009-.126.009.093a22.469,22.469,0,0,1,.152-4.729,4.6,4.6,0,0,1,.272-.791c.05-.079.105-.155.163-.231a5.929,5.929,0,0,1,.669-.552c.876-.511,1.813-.9,2.7-1.4Zm-3.135,1.679c-.067.079-.146.166-.219.248a2.506,2.506,0,0,1,.219-.248Zm-.555,7.564.009.015h0l-.006-.015Zm.006.015,0,0c.026.041.053.082.079.126-.029-.041-.055-.085-.082-.128Zm.163.14.029.026-.029-.026Zm6.417,1.244a.657.657,0,0,1-.105.117c.038-.038.073-.079.105-.117Zm-6.855-2.908.012.12-.012-.152v.032Z" transform="translate(18.778 14.529)" fill="#2c2c2c"/>
    <path id="Path_96716" data-name="Path 96716" d="M60.153,130.9a7.329,7.329,0,0,0-1.62.409,10.669,10.669,0,0,0-2.543,1.267,5.906,5.906,0,0,0-1.95,2.076,4.325,4.325,0,0,0-.479,1.334,4.469,4.469,0,0,0,.023,1.232,3.321,3.321,0,0,0,.479,1.209,6.561,6.561,0,0,0,1.357,1.495,7.158,7.158,0,0,0,1.8,1.115,8.18,8.18,0,0,0,2.008.639,6.889,6.889,0,0,0,2.064.091,7.523,7.523,0,0,0,2.417-.695,1.456,1.456,0,1,0-1.267-2.622c-.19.09-.385.175-.584.248a7.879,7.879,0,0,1-.975.19,8.228,8.228,0,0,1-1.282-.093,7.943,7.943,0,0,1-1.352-.488,8.6,8.6,0,0,1-1.241-.855,5.6,5.6,0,0,1-.415-.458c-.047-.093-.093-.184-.137-.277l-.02-.105c0-.073.009-.146.015-.219.029-.091.061-.178.1-.266a3.772,3.772,0,0,1,.371-.523,7.765,7.765,0,0,1,1-.823,9.831,9.831,0,0,1,1.536-.727,8.733,8.733,0,0,1,1.4-.3,4.565,4.565,0,0,1,.631.035c.07.02.143.044.213.07a1.812,1.812,0,0,1,.242.19,1.414,1.414,0,0,0,1.106.228,1.44,1.44,0,0,0,.925-.6,1.466,1.466,0,0,0,.239-1.106,1.637,1.637,0,0,0-.6-.922,3.684,3.684,0,0,0-2.134-.8c-.105-.009-.213-.012-.321-.012a9.493,9.493,0,0,0-1,.07Zm.633,2.852c-.07.006-.143.009-.21.009l.21-.009Zm-.987.181c-.07.026-.143.05-.216.076.073-.026.143-.053.216-.076Z" transform="translate(13.369 18.001)" fill="#2c2c2c"/>
    <path id="Path_96717" data-name="Path 96717" d="M55.312,133.857a1.546,1.546,0,0,0-.742.832,6.67,6.67,0,0,0-.4,3.468,4.468,4.468,0,0,0,.569,1.641,3.124,3.124,0,0,0,1.573,1.392,6.429,6.429,0,0,0,.9.216,4.2,4.2,0,0,0,.993-.058,3.148,3.148,0,0,0,.946-.33c.184-.126.377-.239.569-.365a3.019,3.019,0,0,0,.47-.455,6.576,6.576,0,0,0,1.573-4.061,1.485,1.485,0,0,0-1.357-1.562,1.459,1.459,0,0,0-1.55,1.357c-.02.245-.047.485-.085.724a7.311,7.311,0,0,1-.315.955,5.362,5.362,0,0,1-.4.622,2.211,2.211,0,0,1-.225.184c.1-.055.216-.126.318-.193a2.171,2.171,0,0,1-.412.242,1.776,1.776,0,0,1-.181.032.909.909,0,0,1-.126-.009l-.047-.015-.035-.026-.05-.055c-.064-.123-.123-.245-.175-.374-.044-.193-.082-.388-.111-.593a6.82,6.82,0,0,1,.076-1.092,3.749,3.749,0,0,1,.239-.677,1.465,1.465,0,0,0-.9-1.86,1.538,1.538,0,0,0-.5-.082,1.411,1.411,0,0,0-.622.14Zm1.7,3.672c0,.053.006.105.006.158l-.006-.158Zm1.282.444a2.068,2.068,0,0,1-.187.2c.064-.067.123-.14.187-.2Zm-.342.435c-.053.018-.108.032-.161.047l.161-.047Zm-.809.032c.05.009.1.02.146.032a1.473,1.473,0,0,1-.146-.032Zm.558.058h0Zm-.044,0h0c-.018,0-.038,0-.058,0l.061,0Zm-.161.009h0Zm-.035,0h0l-.023,0,0,0Zm-.038,0h0l-.02,0,0,0Zm-.026,0,0,0-.038,0v0l.035,0Zm-.038,0,0,0-.038,0,.035-.006Z" transform="translate(14.476 23.542)" fill="#2c2c2c"/>
    <path id="Path_96718" data-name="Path 96718" d="M97.508,128.879c-10.869.537-21.781,1.051-32.638.012a1.463,1.463,0,0,0-.2,2.919c10.857,1.028,21.781.525,32.65-.012a1.584,1.584,0,0,0,1.036-.342,1.465,1.465,0,0,0,.514-1.013,1.536,1.536,0,0,0-.342-1.051,1.466,1.466,0,0,0-.993-.514Z" transform="translate(32.134 14.257)" fill="#2c2c2c"/>
    <path id="Path_96719" data-name="Path 96719" d="M82.618,132.051a113.587,113.587,0,0,1-17.06-.1,1.457,1.457,0,1,0-.2,2.908,114.842,114.842,0,0,0,17.037.114c4.665-.2,9.327-.409,14-.149a1.463,1.463,0,1,0,.2-2.919c-1.574-.085-3.147-.117-4.721-.117-3.086,0-6.171.131-9.26.266Z" transform="translate(33.45 19.834)" fill="#2c2c2c"/>
    <path id="Path_96720" data-name="Path 96720" d="M65.25,135.066a1.672,1.672,0,0,0-1.048.342,1.539,1.539,0,0,0-.514,1.016,1.472,1.472,0,0,0,.353,1.051,1.383,1.383,0,0,0,1,.511c10.81-.636,21.632-.283,32.454-.169a1.476,1.476,0,0,0,1.55-1.358,1.446,1.446,0,0,0-1.355-1.55c-6.034-.07-12.071-.213-18.106-.213-4.782,0-9.561.09-14.34.371Z" transform="translate(32.862 25.419)" fill="#2c2c2c"/>
    <path id="Path_96721" data-name="Path 96721" d="M121.565,137.59c-5.678.33-11.359.342-17.049.263-2.838-.047-5.69-.1-8.542-.161-3.077-.055-6.145-.032-9.213.047-5.757.137-11.5.444-17.253.66-2.1.082-4.186,0-6.282-.091a47.93,47.93,0,0,0-10.311.3,1.457,1.457,0,1,0,.549,2.861c.975-.166,1.953-.277,2.94-.347,2.49-.114,4.992.02,7.482.143,1.267.055,2.522.09,3.786.09,1.311,0,2.624-.079,3.935-.137,5.564-.216,11.117-.5,16.672-.6s11.073.082,16.614.161c5.485.079,10.982.047,16.468-.274a1.588,1.588,0,0,0,1.048-.342,1.489,1.489,0,0,0,.514-1.016,1.437,1.437,0,0,0-.353-1.036,1.4,1.4,0,0,0-.96-.514Z" transform="translate(9.911 30.976)" fill="#2c2c2c"/>
    <path id="Path_96722" data-name="Path 96722" d="M91.594,140.531q-7.357.013-14.722.6c-2.327.169-4.653.409-6.98.695-2.23.274-4.464.546-6.709.707a31.863,31.863,0,0,1-7.549-.365c.05.012.093.02.14.035l-.14-.035-.245-.047c.085.015.166.029.245.047-.441-.105-.873-.216-1.308-.33a1.457,1.457,0,0,0-.969,2.747,26.285,26.285,0,0,0,6.364.937,51.319,51.319,0,0,0,6.627-.344c2.2-.228,4.388-.534,6.589-.774,2.333-.263,4.685-.441,7.036-.6l-.044,0,.307-.02.07,0h-.018c6.758-.4,13.537-.441,20.3-.2,6.831.263,13.639.8,20.47.674a1.584,1.584,0,0,0,1.048-.342,1.539,1.539,0,0,0,.514-1.016,1.476,1.476,0,0,0-1.357-1.562c-4.937.1-9.864-.137-14.778-.4-4.694-.236-9.388-.423-14.094-.423-.266,0-.531,0-.8,0Zm-28.218,1.994-.193.012c.061-.006.128-.009.193-.012Zm16.859,1.27-.263.018c.108,0,.213-.009.315-.02l-.053,0Zm-24.6-1.623Z" transform="translate(11.188 36.615)" fill="#2c2c2c"/>
    <path id="Path_96723" data-name="Path 96723" d="M52.933,144.1a1.47,1.47,0,0,0-.753.835,1.449,1.449,0,0,0,.07,1.115,1.3,1.3,0,0,0,.832.742c1.095.239,2.2.447,3.316.6,1.357.184,2.715.263,4.072.333,2.805.114,5.611.012,8.416-.105,2.6-.1,5.2-.228,7.8-.239,2.951-.02,5.917.161,8.872.321,6,.307,11.984.683,17.983.8,6.043.114,12.1-.09,18.12-.558a1.411,1.411,0,0,0,.923-.593,1.44,1.44,0,0,0,.228-1.118,1.463,1.463,0,0,0-.593-.923,1.6,1.6,0,0,0-1.118-.231l-2.838.207.377-.035q-8.316.512-16.64.3c-5.608-.126-11.219-.5-16.818-.788-2.6-.137-5.191-.274-7.789-.286s-5.191.114-7.777.219c-5.144.213-10.329.394-15.405-.616l-.172-.035a2.451,2.451,0,0,0-.54-.076,1.28,1.28,0,0,0-.566.131Z" transform="translate(10.628 43.217)" fill="#2c2c2c"/>
    <path id="Path_96724" data-name="Path 96724" d="M47.844,125.539a1.359,1.359,0,0,0-.753.835,20.43,20.43,0,0,0-.49,3.465,30.4,30.4,0,0,0,.067,3.821c.146,2.435.458,4.849.625,7.284.184,3.451.117,6.919.073,10.378-.047,3.786-.07,7.584-.149,11.371-.149,7.412-.377,14.813-.263,22.225.023,1.381-.058,2.77-.079,4.151-.047,2.1-.012,4.2.146,6.294a19.988,19.988,0,0,0,1.141,5.713,5,5,0,0,0,3.057,3.194,1.5,1.5,0,0,0,1.868-.9,1.466,1.466,0,0,0-.9-1.86c-.111-.038-.222-.076-.33-.12-.085-.055-.166-.117-.245-.178a4.479,4.479,0,0,1-.333-.406,7.214,7.214,0,0,1-.561-1.174,22.365,22.365,0,0,1-.858-5.164v.073c0-.064-.006-.131-.009-.2l-.015-.181.009.088c-.149-2.846-.029-5.681.015-8.524.023-.96-.012-1.93-.023-2.887q-.018-2.273,0-4.548c.023-3.24.09-6.466.172-9.7.126-6.078.2-12.144.283-18.222.035-2.986.058-5.976-.067-8.951-.114-2.648-.488-5.275-.671-7.923a25.306,25.306,0,0,1,.231-5.9c.02-.088.044-.175.064-.269a1.558,1.558,0,0,0-.067-1.106,1.43,1.43,0,0,0-.832-.753,1.479,1.479,0,0,0-.476-.079,1.427,1.427,0,0,0-.631.146Zm1.982,1.825-.026.163.026-.163Zm-.055.289-.023.1.023-.1Zm-.216,5.853c0,.047.006.093.009.143l-.009-.143ZM47.3,141.046l.009.117-.009-.117Zm3.316,58.3c.029.07.053.143.079.219-.029-.073-.053-.146-.079-.219Zm-.762-5,.009.123c0-.07-.009-.143-.015-.216l.006.093Z" transform="translate(0 7.566)" fill="#2c2c2c"/>
    <path id="Path_96725" data-name="Path 96725" d="M82.406,125.91a1.485,1.485,0,0,0-.741.832,1.51,1.51,0,0,0,.058,1.118,1.558,1.558,0,0,0,.832.742l.047.029-.184-.1a4.377,4.377,0,0,1,.523.362,4.9,4.9,0,0,1,.382.464,7.288,7.288,0,0,1,.447.969,12.155,12.155,0,0,1,.415,2.458c.158,3.567-.552,7.047-.923,10.574-.114,1.025-.114,2.052-.161,3.077q-.1,2.584-.2,5.167-.206,5.15-.33,10.308c-.082,3.238-.09,6.478-.114,9.715-.023,3.386-.126,6.776-.239,10.162-.058,1.492-.114,3-.172,4.5-.067,1.617-.161,3.226-.149,4.858.012,1.574.105,3.147.105,4.732a24.162,24.162,0,0,1-.368,4.469,7.957,7.957,0,0,1-.5,1.495,1.453,1.453,0,0,0,.887,1.857,1.446,1.446,0,0,0,1.86-.887,13.773,13.773,0,0,0,.981-4.653,56.808,56.808,0,0,0-.023-5.771c-.055-1.971.035-3.932.114-5.906.09-2.064.161-4.128.228-6.192.137-4.151.172-8.3.207-12.454.032-4.207.146-8.4.295-12.611.07-1.9.137-3.81.216-5.725.082-1.836.117-3.7.239-5.532.07-.911.207-1.825.333-2.735.158-1.15.307-2.315.432-3.468a24.73,24.73,0,0,0-.055-7.161A8.1,8.1,0,0,0,85.7,127.7a4.665,4.665,0,0,0-.753-.911,5.66,5.66,0,0,0-.66-.525,5.1,5.1,0,0,0-.765-.409,1.034,1.034,0,0,0-.45-.093,1.619,1.619,0,0,0-.669.149Zm.321,2.77.023.023h0l-.023-.023Zm.023.023v0l.093.088-.093-.091Z" transform="translate(66.148 8.272)" fill="#2c2c2c"/>
    <path id="Path_96726" data-name="Path 96726" d="M50.489,125.261a5.589,5.589,0,0,0-1.825.558,4.251,4.251,0,0,0-1.62,1.448,1.465,1.465,0,1,0,2.441,1.62c.035-.05.067-.1.1-.146a2.893,2.893,0,0,1,.283-.251c.143-.076.286-.143.441-.207a7.221,7.221,0,0,1,1.226-.21,23.269,23.269,0,0,1,3.31.222c.514.067,1.028.137,1.553.193.934.1,1.892.126,2.826.184,4.221.239,8.44.388,12.658.388,2.134-.012,4.253-.093,6.376-.149s4.253-.114,6.385-.172c4.253-.1,8.519-.161,12.772-.193,8.5-.07,16.982.114,25.465.467,4.163.181,8.335.33,12.509.342,2.02,0,4.037-.035,6.055-.161a24.174,24.174,0,0,1,5.377.061c.269.061.531.128.794.213a1.493,1.493,0,0,0,1.845-.934,1.474,1.474,0,0,0-.934-1.848,16.2,16.2,0,0,0-2.849-.514,22.713,22.713,0,0,0-3.057.035c-1.028.058-2.064.137-3.092.172-1.141.032-2.28.044-3.41.055-4.548.035-9.1-.161-13.651-.353-4.618-.2-9.225-.353-13.855-.423-4.834-.067-9.68-.055-14.515,0-4.642.047-9.3.161-13.937.286-2.315.058-4.642.149-6.957.184s-4.607,0-6.91-.07-4.607-.181-6.9-.307c-.946-.047-1.9-.093-2.84-.184-.628-.055-1.252-.149-1.88-.228a20.989,20.989,0,0,0-2.557-.175,13.324,13.324,0,0,0-1.629.1Zm.99,2.811-.123.006.123-.006Z" transform="translate(0.458 7.128)" fill="#2c2c2c"/>
    <path id="Path_96727" data-name="Path 96727" d="M49.168,151.689a1.469,1.469,0,0,0-1.141,1.722,1.491,1.491,0,0,0,1.722,1.141c.514-.067,1.019-.123,1.533-.169a59.482,59.482,0,0,1,10.863.715c1.915.251,3.83.5,5.76.663,2.1.172,4.2.263,6.306.33,4.207.149,8.425.126,12.635.161q6.363.035,12.7.023c4.233-.012,8.475-.035,12.7-.012,4.175.023,8.358.067,12.533.035,2.087-.012,4.163-.058,6.25-.126.958-.035,1.9-.082,2.861-.137.9-.047,1.8-.023,2.715.012,1.766.067,3.524.193,5.29.114a18.026,18.026,0,0,0,2.189-.251,7.876,7.876,0,0,0,2.554-.937,1.483,1.483,0,0,0,.663-1.959,1.463,1.463,0,0,0-1.95-.663,4.934,4.934,0,0,1-.873.45,12.819,12.819,0,0,1-2.108.415,43.346,43.346,0,0,1-4.65-.032c-.785-.047-1.574-.079-2.347-.091-1.016-.012-2.032.067-3.045.114-3.97.181-7.949.2-11.928.193-4.014-.02-8.016-.055-12.03-.055-4.049,0-8.086.023-12.133.023s-8.075-.023-12.1-.047-8.051-.058-12.065-.228c-1.86-.079-3.716-.2-5.564-.388-1.938-.193-3.877-.479-5.815-.718-1.962-.251-3.924-.455-5.909-.549-.461-.018-.928-.029-1.393-.029a32.055,32.055,0,0,0-4.227.28Zm2.07,2.7-.055,0,.055,0Z" transform="translate(2.757 57.499)" fill="#2c2c2c"/>
    <path id="Path_96728" data-name="Path 96728" d="M46.855,148.466A1.465,1.465,0,0,0,48.225,150q12.519.276,25.03.6c4.265.126,8.542.263,12.807.423s8.519.388,12.784.534c8.291.3,16.59.093,24.881.058q6.363-.035,12.728.161c.934.032,1.868.079,2.8.079,1.106,0,2.2-.07,3.3-.126,2.02-.1,4.026-.193,6.034-.1a1.456,1.456,0,1,0,.169-2.908,54.522,54.522,0,0,0-5.485.067c-2.029.1-4.046.184-6.078.1-4.242-.169-8.484-.2-12.725-.193-8.484.012-16.979.216-25.465-.058-4.07-.126-8.13-.353-12.2-.511q-6.4-.241-12.807-.423-12.8-.359-25.6-.616H48.35a1.468,1.468,0,0,0-1.495,1.369Z" transform="translate(0.556 49.223)" fill="#2c2c2c"/>
    <path id="Path_96729" data-name="Path 96729" d="M85.126,121.816a16.638,16.638,0,0,0-1.9,2.484,25.7,25.7,0,0,1-1.644,2.379,8.33,8.33,0,0,1-1.057.937c-.131.079-.263.152-.4.219a1.462,1.462,0,1,0,1.29,2.624,9.907,9.907,0,0,0,1.652-1.141,10.335,10.335,0,0,0,1.527-1.766c.35-.487.669-1.013.987-1.524a6.642,6.642,0,0,0,1.261,2.96,2.814,2.814,0,0,0,1.036.73,3.619,3.619,0,0,0,1.655.251,3.535,3.535,0,0,0,1.095-.3c.257-.108.476-.26.712-.385.067.228.137.458.222.683a1.875,1.875,0,0,0,.251.523,1.955,1.955,0,0,0,.674.753,3.679,3.679,0,0,0,1.378.5,7.332,7.332,0,0,0,1.016.047c.228,0,.452,0,.686.006.093.1.181.2.269.315.038.073.076.149.108.225.023.1.044.193.058.292a3,3,0,0,1-.015.4,4.814,4.814,0,0,1-.21.639,6.384,6.384,0,0,1-.406.59,5.487,5.487,0,0,1-.549.488,1.46,1.46,0,1,0,1.918,2.2,9.774,9.774,0,0,0,1.115-1.139,5.183,5.183,0,0,0,1.063-2.727,4.1,4.1,0,0,0-.137-1.381,3.94,3.94,0,0,0-.593-1.3,2.926,2.926,0,0,0-.447-.558c-.181-.172-.377-.342-.569-.514a3.3,3.3,0,0,0-1.287-.444c-.286-.012-.572-.012-.844-.012s-.534,0-.794-.023v0a9.911,9.911,0,0,0-.406-1.194,2.667,2.667,0,0,0-1.652-1.188,2.709,2.709,0,0,0-.9-.126,2.775,2.775,0,0,0-.958.2c-.365.137-.689.362-1.045.531l-.032.009-.146-.018c-.038-.009-.076-.023-.111-.035l0,0-.026-.026a4.336,4.336,0,0,1-.3-.645c-.21-.756-.353-1.538-.534-2.3a5.517,5.517,0,0,0-.946-2.1,1.43,1.43,0,0,0-1.13-.5,1.234,1.234,0,0,0-.923.365Zm3.906,5.252.032.029.047-.006.009.006-.05,0,.149.131a1.642,1.642,0,0,1-.152-.131l-.038,0,0,0,.035,0-.029-.029Zm.152.015.015,0h0l-.012,0Zm.023,0,.023.006h0l-.023-.006Zm-.035,0-.053.009-.006-.006.058,0Zm.076.006.131.023c-.047-.006-.091-.012-.137-.02l.006,0Zm-.222.006,0,0-.082,0,.079-.006Zm-8.189.315c-.1.07-.2.134-.307.2.1-.067.2-.134.307-.2Zm13.429,1.5.131.064-.131-.064Zm-3.267.28a1.517,1.517,0,0,1,.251.047L91,129.193Zm4.96,3.2a1.848,1.848,0,0,1,.079.245c-.02-.079-.053-.163-.079-.245Zm.047.315a2.37,2.37,0,0,1,.02.248l-.02-.248Zm-.753,1.693-.082.093.082-.093Zm-6.192-7.3.006,0h0l-.006,0Z" transform="translate(62.832 0)" fill="#2c2c2c"/>
  </g>
</svg>
