<?xml version="1.0" encoding="utf-8"?>
<!-- Generator: Adobe Illustrator 25.1.0, SVG Export Plug-In . SVG Version: 6.00 Build 0)  -->
<svg version="1.1" id="Group_51098" xmlns="http://www.w3.org/2000/svg" xmlns:xlink="http://www.w3.org/1999/xlink" x="0px"
	 y="0px" viewBox="0 0 64.1 79" style="enable-background:new 0 0 64.1 79;" xml:space="preserve">
<style type="text/css">
	.st0{fill:#95E22E;}
</style>
<path id="Path_96746" class="st0" d="M24.9,44.1c0,0.4-0.1,0.7-0.2,1.1c-0.1,0.5-0.3,1-0.6,1.4c-0.3,0.4-0.6,0.8-0.9,1.1
	c-0.5,0.5-1,0.9-1.6,1.2c-1.2,0.6-2.5,1.1-3.8,1.5c-2.7,0.7-5.4,1.1-8.1,1.8c-1.3,0.3-2.5,0.8-3.7,1.4c-1.3,0.7-2.5,1.8-3.4,3
	c-1.8,2.4-2.3,5.6-2.5,8.5c-0.2,3.2,0,6.5,0.1,9.7v-0.3c0,1.1,0,2.2-0.1,3.3c0,0.3,0,0.6,0.2,0.8c0.3,0.5,1,0.6,1.5,0.2c0,0,0,0,0,0
	c0.2-0.2,0.4-0.4,0.4-0.7c0-1,0.1-1.9,0.1-2.9c0-0.7,0-1.5,0-2.2c0-1.5-0.1-3.1-0.1-4.6c0,0.1,0,0.1,0,0.2c-0.1-2.4,0.1-4.8,0.6-7.2
	v0c0.3-1,0.6-1.9,1.1-2.9c0.4-0.7,0.8-1.3,1.4-1.8c0.5-0.4,1-0.8,1.5-1.2c0.9-0.5,1.8-0.9,2.7-1.1c1.7-0.5,3.4-0.8,5.2-1.1
	c1.9-0.4,3.8-0.9,5.7-1.5c1.7-0.6,3.3-1.5,4.6-2.8c0.6-0.6,1-1.3,1.4-2c0.4-0.9,0.7-1.8,0.7-2.8c0.1-0.6-0.3-1.1-0.9-1.2
	c0,0-0.1,0-0.2,0C25.4,43.1,25,43.5,24.9,44.1L24.9,44.1z M24.7,45.2c0,0.1,0,0.1,0,0.2C24.7,45.3,24.7,45.3,24.7,45.2z M23.4,47.6
	L23.4,47.6C23.3,47.7,23.4,47.6,23.4,47.6z M9.4,54.5l-0.2,0L9.4,54.5z M6.9,55.5L6.9,55.5L6.9,55.5z M5.4,56.6c0,0-0.1,0.1-0.1,0.1
	L5.4,56.6z M4,58.4L4,58.4L4,58.4z M2.1,68.7L2.1,68.7z"/>
<path id="Path_96747" class="st0" d="M34.2,43.4c0,0.4,0,0.7,0,1.1c0.1,0.4,0.2,0.8,0.3,1.2c0.1,0.3,0.2,0.6,0.4,0.8
	c0.2,0.3,0.4,0.7,0.7,1c1.1,1.1,2.5,2,4,2.5c1.4,0.5,2.9,1,4.4,1.3c1.7,0.4,3.3,0.7,5,1.1c-0.1,0-0.1,0-0.2,0c1.7,0.4,3.4,1.1,5,1.9
	c0.7,0.4,1.3,0.9,1.8,1.4c0.4,0.4,0.8,0.9,1.1,1.5c0.4,0.7,0.7,1.5,1,2.3c0.4,1.7,0.7,3.5,0.7,5.3c0,3.9-0.6,7.8-0.4,11.7
	c0.1,0.6,0.6,1,1.2,0.9c0.3,0,0.5-0.2,0.7-0.4c0.2-0.2,0.2-0.5,0.2-0.8c0-0.4,0-0.8-0.1-1.2c0,0.1,0,0.1,0,0.2
	c0-3.5,0.4-6.9,0.4-10.4c0-3.3-0.5-6.8-2.4-9.5c-0.8-1.1-1.9-2.1-3.1-2.8c-1.3-0.7-2.6-1.3-4-1.7c-2.7-0.9-5.6-1.3-8.3-2
	c-1.3-0.3-2.6-0.8-3.9-1.5c-0.5-0.3-1-0.7-1.4-1.1c-0.2-0.2-0.4-0.4-0.6-0.7c-0.1-0.3-0.3-0.5-0.4-0.8c-0.1-0.3-0.1-0.6-0.1-0.9
	v-0.1c0-0.3,0-0.6-0.2-0.8c-0.2-0.2-0.4-0.4-0.7-0.4c0,0-0.1,0-0.1,0C34.7,42.5,34.3,42.9,34.2,43.4L34.2,43.4z M38.6,47.2
	c0.1,0,0.1,0.1,0.2,0.1L38.6,47.2z M60.1,75.2L60.1,75.2z"/>
<path id="Path_96748" class="st0" d="M11.6,71.1c-0.1,2.1,0.2,4.2,0.2,6.2c0,0.3,0.2,0.5,0.4,0.7c0.2,0.2,0.5,0.3,0.8,0.2
	c0.3,0,0.5-0.2,0.7-0.4c0.2-0.2,0.2-0.5,0.2-0.8c0-1.6-0.2-3.1-0.3-4.7c0-0.3,0-0.6,0-0.9c0.1-0.6-0.3-1.1-0.9-1.2c0,0-0.1,0-0.1,0
	C12.1,70.2,11.7,70.6,11.6,71.1L11.6,71.1z"/>
<path id="Path_96749" class="st0" d="M47.3,71.5c-0.5,0.4-0.5,1-0.2,1.5c0.2,0.2,0.4,0.4,0.7,0.4c0.3,0,0.6,0,0.8-0.2
	c0.2-0.2,0.4-0.4,0.4-0.7c0-0.3,0-0.6-0.2-0.8c-0.2-0.2-0.4-0.4-0.7-0.4C47.8,71.3,47.5,71.3,47.3,71.5L47.3,71.5z"/>
<path id="Path_96750" class="st0" d="M40.3,49.7c-0.4,1-0.9,2-1.5,2.9c0-0.1,0.1-0.2,0.1-0.2c-0.6,1.1-1.4,2.1-2.3,3.1
	c-0.5,0.5-1.1,0.9-1.7,1.3c-1,0.6-2.1,0.9-3.2,0.9c-0.7,0-1.4-0.1-2.1-0.3c-1-0.3-2-0.7-2.9-1.2c-1-0.6-2-1.4-2.8-2.2
	c0.1,0.1,0.1,0.1,0.2,0.2c-0.9-0.9-1.6-1.8-2.3-2.9l0,0c-0.1-0.2-0.3-0.5-0.4-0.8c-0.2-0.5-0.9-0.8-1.4-0.6
	c-0.5,0.2-0.8,0.9-0.6,1.4c1.2,2.3,2.8,4.2,4.8,5.7c1,0.7,2.1,1.4,3.2,1.8c1.2,0.5,2.5,0.8,3.8,0.8c1.8,0.1,3.5-0.4,5-1.4
	c0.6-0.4,1.1-0.8,1.6-1.3c1.8-1.9,3.2-4.1,4.2-6.5c0.2-0.5,0-1.2-0.6-1.4c-0.1-0.1-0.3-0.1-0.4-0.1C40.9,49.1,40.5,49.3,40.3,49.7
	L40.3,49.7z M21.8,51c0,0,0.1,0.1,0.1,0.1L21.8,51z M36.7,55.5L36.7,55.5C36.7,55.6,36.7,55.5,36.7,55.5z M26.9,56.2
	c0.1,0,0.1,0.1,0.2,0.1C27,56.2,26.9,56.2,26.9,56.2z"/>
<path id="Path_96751" class="st0" d="M31.9,57.8c-0.3,0-0.5,0.2-0.7,0.4c-0.2,0.2-0.3,0.5-0.2,0.8c0,0.3,0.2,0.5,0.4,0.7
	c0.2,0.1,0.4,0.3,0.6,0.4c0.1,0.1,0.3,0.3,0.4,0.5c0.1,0.2,0.2,0.4,0.3,0.7c0,0.2,0.1,0.4,0.1,0.6c0,0.2,0,0.3-0.1,0.5
	c0,0.1-0.1,0.2-0.1,0.3c-0.1,0.1-0.1,0.1-0.2,0.2c-0.1,0.1-0.1,0.1-0.2,0.2C32.1,63,32,63,31.9,63.1c-0.1,0-0.3,0-0.4,0
	c-0.1,0-0.1,0-0.2,0c-0.1,0-0.2-0.1-0.3-0.1c-0.1-0.1-0.3-0.2-0.4-0.3c-0.3-0.3-0.5-0.7-0.7-1.2c0-0.2-0.1-0.4-0.1-0.6
	c0-0.1,0-0.3,0-0.4c0-0.1,0.1-0.2,0.1-0.3c0-0.1,0.1-0.1,0.1-0.2c0.1-0.1,0.2-0.2,0.4-0.3c0.2-0.2,0.4-0.4,0.4-0.7
	c0-0.3,0-0.6-0.2-0.8c-0.2-0.2-0.4-0.4-0.7-0.4c-0.3,0-0.6,0-0.8,0.2c-0.7,0.4-1.1,1-1.3,1.8c-0.2,0.8-0.2,1.6,0.1,2.4
	c0.2,0.8,0.7,1.5,1.3,2c0.3,0.3,0.7,0.5,1.1,0.7c0.4,0.2,0.9,0.3,1.3,0.2c1.7,0,3.1-1.3,3.3-3c0-0.4,0-0.7,0-1.1
	c-0.1-0.4-0.2-0.9-0.4-1.3c-0.4-0.8-1-1.5-1.7-1.9c-0.2-0.1-0.4-0.2-0.7-0.2C32,57.8,32,57.8,31.9,57.8L31.9,57.8z M32.3,60.4
	L32.3,60.4C32.3,60.4,32.3,60.4,32.3,60.4z M29.8,60.7c0,0.1,0,0.1,0,0.2C29.9,60.8,29.8,60.7,29.8,60.7z"/>
<path id="Path_96752" class="st0" d="M47.2,68.7c-0.2,0.2-0.4,0.4-0.4,0.7c-0.1,2.2,0,4.3,0.2,6.5c0.1,0.6,0.6,1,1.2,0.9
	c0.6-0.1,1-0.6,0.9-1.2c-0.1-1.1-0.2-2.3-0.2-3.5c0-0.8,0-1.6,0-2.5c0-0.3-0.1-0.6-0.2-0.8c-0.2-0.2-0.4-0.4-0.7-0.4
	c0,0-0.1,0-0.1,0C47.7,68.5,47.4,68.6,47.2,68.7L47.2,68.7z"/>
<path id="Path_96753" class="st0" d="M25.1,12.6c-0.6,0.1-1,0.6-0.9,1.2c0.1,0.7,0.2,1.4,0.4,2.1c0,0,0,0.1,0,0.1
	c-1.9,4.1-3.2,8.3-3.9,12.7c-0.4,2.3-0.4,4.6,0,6.9c0.4,2.2,1.2,4.3,2.6,6c0.3,0.4,0.7,0.8,1.1,1.2c0.4,0.4,0.8,0.8,1.3,1.1
	c1.1,0.6,2.3,1,3.6,1c1.2,0.1,2.4-0.1,3.6-0.4c1.2-0.3,2.2-0.8,3.2-1.5c0.8-0.6,1.5-1.3,2-2.1c0.6-0.9,1.2-1.9,1.6-2.9
	c0.4-1,0.7-2,0.9-3.1c0.2-1.1,0.4-2.3,0.5-3.5c0.1-1.7,0-3.5-0.2-5.2c-0.2-1.8-0.9-3.5-2-4.9c-1-1.2-2.3-2.1-3.9-2.5
	c-0.8-0.2-1.6-0.4-2.5-0.5c-0.5,0-0.9-0.1-1.4-0.1c-0.5,0-0.9-0.1-1.4-0.2c-0.4-0.1-0.9-0.3-1.3-0.5c-0.3-0.2-0.5-0.3-0.7-0.5
	c-0.2-0.2-0.4-0.5-0.6-0.8c-0.2-0.4-0.4-0.9-0.6-1.3c-0.1-0.5-0.2-1-0.3-1.5c-0.1-0.5-0.5-0.9-1-0.9C25.2,12.5,25.1,12.5,25.1,12.6
	L25.1,12.6z M26.2,18.5c0.3,0.3,0.7,0.6,1.1,0.8c1,0.6,2.1,0.9,3.3,1c0.6,0.1,1.3,0.1,1.9,0.2c0.5,0.1,1,0.1,1.5,0.2
	c0.6,0.2,1.2,0.4,1.7,0.6c0.3,0.2,0.7,0.4,1,0.7c0.3,0.3,0.6,0.7,0.9,1.1c0.3,0.6,0.6,1.2,0.8,1.8c0.4,1.4,0.6,2.8,0.7,4.3
	c0,2-0.2,3.9-0.6,5.8l0-0.1l0,0.2l0,0.1l0-0.1c-0.3,1.3-0.8,2.5-1.4,3.7c-0.4,0.6-0.8,1.2-1.2,1.7c-0.4,0.4-0.8,0.7-1.2,1
	c-0.6,0.4-1.3,0.7-2,0.9c-0.8,0.2-1.7,0.4-2.5,0.4c-0.6,0-1.2-0.1-1.8-0.2c-0.5-0.1-0.9-0.3-1.3-0.5c-0.3-0.2-0.6-0.5-0.9-0.7
	c-0.6-0.6-1.2-1.3-1.7-2.1c-0.5-0.8-0.8-1.7-1.1-2.5c-0.4-1.3-0.6-2.6-0.6-4c0-2.4,0.3-4.7,0.9-7v0c0.6-2.5,1.4-4.9,2.4-7.3h0
	C25.9,18.6,26.1,18.5,26.2,18.5L26.2,18.5z M23,36.5c0,0.1,0.1,0.2,0.1,0.3C23,36.7,23,36.6,23,36.5z M35.7,40.5L35.7,40.5
	C35.6,40.5,35.6,40.5,35.7,40.5z M25.8,41.3L25.8,41.3L25.8,41.3z M25.9,41.4L25.9,41.4L25.9,41.4z M38.3,35.1L38.3,35.1L38.3,35.1
	L38.3,35.1L38.3,35.1z"/>
<path id="Path_96754" class="st0" d="M26.9,0.1c-1.1,0.1-2.2,0.4-3.3,0.8c-2,0.7-3.8,1.9-5.3,3.4c-1.6,1.6-3,3.4-4,5.4
	c-0.6,1-1.1,2.1-1.5,3.1c-0.6,1.5-1,3-1.3,4.5c-0.5,3.2-0.8,6.5-0.7,9.8c0,3.1-0.3,6.2-0.1,9.2c0,1.2,0.2,2.4,0.4,3.6
	c0.2,1.1,0.5,2.1,1.1,3.1c0.4,0.7,0.9,1.3,1.5,1.8c0.6,0.5,1.3,0.8,2.1,1c1.5,0.2,3.1,0,4.5-0.5c1.6-0.6,3.2-1.4,4.7-2.4
	c0.2-0.1,0.4-0.3,0.6-0.6c0.1-0.3,0.1-0.6,0-0.8c-0.1-0.3-0.3-0.5-0.6-0.6c-0.3-0.1-0.6-0.1-0.8,0c-1.6,1-3.3,1.9-5.1,2.5
	c-0.6,0.2-1.3,0.3-1.9,0.4c-0.3,0-0.6,0-1-0.1c-0.5-0.1-1-0.4-1.4-0.7c-0.2-0.2-0.4-0.5-0.6-0.7c-0.3-0.5-0.5-1-0.7-1.6
	c-0.4-1.7-0.6-3.4-0.7-5.1v0.3c0-1.5,0-3,0.1-4.5c0.1-1.6,0.1-3.2,0.1-4.9c-0.1-3.3,0.2-6.6,0.9-9.9c0.6-2.1,1.4-4.2,2.5-6.1
	c0.9-1.6,2-3.1,3.3-4.5c-0.1,0.1-0.1,0.1-0.2,0.2c0.9-0.9,1.8-1.7,2.9-2.3C23,3.4,24,2.9,24.9,2.6c1-0.3,2.1-0.5,3.2-0.5
	c1.4,0,2.8,0.2,4.1,0.5c1.4,0.4,2.8,0.9,4.1,1.6c1.2,0.7,2.4,1.6,3.5,2.6c1.3,1.3,2.5,2.7,3.5,4.3l0-0.1l0.1,0.2l0,0.1l0,0
	c1.5,2.6,2.7,5.3,3.5,8.1c0-0.1-0.1-0.2-0.1-0.3c1.3,4.5,2.1,9.2,2.2,13.9v0l0,0.2c0-0.1,0-0.1,0-0.2c0,1.6-0.2,3.1-0.5,4.6l0-0.1
	l0,0.1l-0.1,0.2c0-0.1,0-0.1,0-0.2c-0.3,1.1-0.7,2.1-1.2,3l0,0l0,0c0,0.1-0.1,0.1-0.1,0.2c0-0.1,0.1-0.1,0.1-0.2
	c-0.3,0.5-0.7,1-1.1,1.5c-0.4,0.4-0.8,0.7-1.2,1c-0.3,0.2-0.7,0.4-1.1,0.5c-0.4,0.1-0.8,0.1-1.2,0.2c-0.4,0-0.8-0.1-1.2-0.1
	c-0.6-0.2-1.2-0.4-1.7-0.7c-0.5-0.3-0.9-0.6-1.3-1c0.1,0.1,0.1,0.1,0.2,0.2c-0.4-0.3-0.7-0.7-1-1.1c-0.4-0.5-1-0.5-1.5-0.2
	c-0.5,0.4-0.5,1-0.2,1.5c1.5,2,3.8,3.3,6.4,3.6c1.2,0.1,2.4-0.2,3.4-0.7c1-0.5,1.9-1.3,2.6-2.2c0.7-0.9,1.2-1.8,1.6-2.8
	c0.4-1.1,0.8-2.3,1-3.5c0.3-2.1,0.4-4.2,0.1-6.3c-0.3-4.4-1.1-8.8-2.5-13C47.2,13.2,45,9.3,42.1,6c-0.7-0.7-1.5-1.4-2.2-2.1
	c-2.8-2.1-6.1-3.5-9.6-3.8C29.7,0,29.2,0,28.6,0C28.1,0,27.5,0,26.9,0.1L26.9,0.1z M36.2,4.1L36.2,4.1L36.2,4.1z M16.2,10.4
	c0,0,0,0.1-0.1,0.1L16.2,10.4z M16.1,10.5L16.1,10.5L16.1,10.5z M13.7,16.4c0,0.1,0,0.2-0.1,0.2L13.7,16.4z M39.8,43.1L39.8,43.1
	L39.8,43.1z M47.3,40.7L47.3,40.7L47.3,40.7L47.3,40.7L47.3,40.7z M48.4,37.7L48.4,37.7L48.4,37.7L48.4,37.7L48.4,37.7z M48.9,33
	L48.9,33z M43.3,11.2L43.3,11.2L43.2,11C43.3,11.1,43.3,11.1,43.3,11.2L43.3,11.2z"/>
<path id="Path_96755" class="st0" d="M7.1,39.8c-0.1,0.5-0.1,1,0,1.5c0,0.3,0.1,0.6,0.2,0.8c0.1,0.3,0.2,0.6,0.4,0.8
	c0.6,1,1.2,1.9,1.9,2.7c0.4,0.4,1.1,0.5,1.5,0.1c0.4-0.4,0.5-1,0.2-1.4c-0.5-0.7-1-1.3-1.5-2c-0.2-0.3-0.3-0.7-0.5-1
	c-0.1-0.3-0.1-0.6-0.2-0.9c0-0.2,0-0.3,0-0.5c0.1-0.6-0.4-1.1-0.9-1.2c0,0,0,0,0,0c0,0-0.1,0-0.1,0C7.6,38.9,7.2,39.3,7.1,39.8
	L7.1,39.8z M9.4,41.5L9.4,41.5L9.4,41.5z M9.7,42.2c0,0.1,0.1,0.1,0.1,0.2L9.7,42.2z"/>
<path id="Path_96756" class="st0" d="M5.1,42.6c-0.5,0.2-0.8,0.9-0.5,1.4c0.2,0.5,0.5,0.9,0.8,1.3c0.4,0.5,0.9,0.9,1.4,1.3
	c0.5,0.3,1.1,0.2,1.5-0.3c0.3-0.5,0.2-1.1-0.2-1.4c-0.2-0.2-0.4-0.3-0.6-0.5c-0.2-0.2-0.4-0.5-0.6-0.8c-0.1-0.2-0.2-0.3-0.2-0.5
	c-0.2-0.4-0.6-0.6-1-0.6C5.4,42.5,5.3,42.5,5.1,42.6L5.1,42.6z"/>
<path id="Path_96757" class="st0" d="M60.5,54.1c-0.5,0.2-0.8,0.9-0.5,1.4c0.3,0.5,0.6,1,1,1.5c0.4,0.4,0.7,0.8,1,1.3
	c0.1,0.1,0.1,0.3,0.2,0.4c0.3,0.5,0.9,0.7,1.4,0.5c0.5-0.2,0.7-0.8,0.5-1.3c-0.2-0.5-0.5-1.1-0.9-1.5c-0.4-0.5-0.8-0.9-1.1-1.4
	c0.1,0.1,0.1,0.2,0.1,0.2c-0.1-0.2-0.2-0.3-0.3-0.5c-0.2-0.4-0.6-0.6-1-0.6C60.7,54.1,60.6,54.1,60.5,54.1L60.5,54.1z"/>
</svg>
